<svg width="458" height="458" viewBox="0 0 458 458" fill="none" xmlns="http://www.w3.org/2000/svg">
<circle cx="229" cy="229" r="226" fill="#00C8FF"/>
<circle cx="229" cy="229" r="226" fill="url(#paint0_linear_1_30)" fill-opacity="0.8"/>
<circle cx="229" cy="229" r="226" stroke="#356060" stroke-width="5"/>
<mask id="path-2-outside-1_1_30" maskUnits="userSpaceOnUse" x="55.0525" y="51.9481" width="349" height="354" fill="black">
<rect fill="white" x="55.0525" y="51.9481" width="349" height="354"/>
<path d="M192.444 85.0556C194.967 83.7547 225.242 84.952 225.5 86.0556C229.047 86.8437 232.392 89.5991 236 90C239.429 90.381 244.427 94.7931 247.5 96.5C251.189 98.5496 251.604 102.683 254.5 105C259.054 108.643 254.727 123 261.5 123C268.984 123 276.656 122.136 284 123C289.009 123.589 293.542 128.94 296.5 132.556C298.03 134.426 301.059 137.175 301.944 139.389C302.595 141.014 301.067 135.972 301 134.222C300.688 126.105 295.222 118.2 291.5 111.5C289.534 107.961 283.108 98 278.5 98C274.334 98 268.07 98.1097 264.222 96.7778C262.86 96.3064 262.23 92.7572 263.556 92C265.625 90.8174 267.44 91 269.778 91C271.889 91 275.932 91.5566 277.556 93C279.868 95.0557 278 91.8617 278 90.5C278 87.3061 275 83.769 275 80C275 77.0161 273.177 71.5615 270.444 70C266.852 67.9471 262.077 70.9285 263.056 65.0556C263.887 60.0691 276.18 65.0305 278.222 66.4444C283.78 70.2923 284.907 77.6888 287 83.4444C287.692 85.3485 287.539 88.4606 289.5 86.5C291.198 84.8018 292.664 82.116 293.778 80C295.288 77.1297 298 71.1883 298 68C298 63.9275 293.115 63.7309 294.056 59.5C295.252 54.1173 303.231 58.684 306 60.2222C308.362 61.5347 307.507 73.3393 306.5 75.5556C304.526 79.8979 300.41 93.4132 303.056 89.4444C304.659 87.0399 309.625 83.3751 312 81C315.113 77.8869 316.517 75.8372 318.222 72C319.291 69.596 325.798 66.542 326.944 70.5556C328.61 76.3848 325.451 75.9424 321.556 77.0556C318.594 77.9016 317.865 84.9021 316 87C312.898 90.4897 312.099 96.1205 308.5 99C302.686 103.651 310.891 114.754 313.222 120C316.092 126.457 321 135.612 321 143C321 146.008 320.529 165.508 318.556 164.944C313.591 163.526 309.912 157.553 305.444 155C303.35 153.803 290.452 144.992 288.444 147C287.516 147.929 290.837 148.697 291 150C291.119 150.954 292.705 152.514 293.556 153C295.793 154.278 297.859 158.598 298 161C298.393 167.678 299 175.289 299 182.5C299 191.366 294.789 201.78 290.5 209.5C288.032 213.942 284.31 216.856 281.778 221C280.007 223.898 283.879 218.432 285.222 217.222C291.785 211.315 300.827 207.618 307.222 201.222C309.323 199.121 312.566 196.954 314 194.444C315.748 191.385 320.511 189.051 322 186.444C323.359 184.067 326.729 181.98 329 180.778C332.421 178.967 336 174.804 336 180.556C336 189.517 332.981 198.174 332 207C331.921 207.708 331.647 208.855 331.294 210.113C332.239 208.603 333.279 207.122 334 205.5C336.472 199.938 340.218 195.465 345.222 192C346.917 190.827 357.717 185.92 355.778 192.222C353.906 198.307 347.147 201.12 342.556 205.056C341 206.389 341 208.612 341 210.469V210.5C341 213.337 342.788 211.071 344 211C352.224 210.516 357.144 201 366.5 201C371.358 201 373.872 204.709 370 208C365.748 211.614 359.087 212.358 354.389 215.611C351.328 217.73 342.762 220.708 343 225C343.261 229.69 351.136 225.167 353.222 225C359.652 224.486 371.668 219.224 377.222 224.778C383.845 231.401 359.919 231.62 356 232.056C350.527 232.664 343.529 232.814 338.444 235.222C336.202 236.284 346.044 235.691 347.5 236.5C349.708 237.727 352.94 237.089 355.444 238C357.47 238.737 359.149 240.689 361 241.778C365.594 244.48 361.17 247 358 247C349.951 247 342.198 246 334 246C331.749 246 323.423 247.279 322 245.5C319.635 242.544 320 240.404 320 236.5V224C320 219.707 322 215.796 322 211.5C322 209.126 323.307 201.027 320 202.778C317.468 204.118 316.058 207.183 314.222 209.222C307.586 216.596 303.651 226.518 297 234C291.008 240.741 288.899 250.69 281.5 256.444C271.746 264.031 259.761 269.231 253.5 280.5C247.371 291.532 239.36 301.3 231.778 310.778C227.757 315.803 223.968 321.821 221.222 328C218.129 334.96 221.263 342.169 223.056 348.444C223.912 351.444 229.133 355.504 232 356.778C235.599 358.377 242.616 356.709 246 355.5C260.262 350.406 275.756 343.621 288 334.778C299.757 326.286 313.519 320.92 322.5 308.944C325.281 305.236 329.746 298.827 330 294C330.204 290.118 328.394 288.148 328 285C326.45 272.603 289.88 294.427 285.556 296C277.532 298.918 270.048 304.762 263.5 310C260.418 312.466 252.947 322.683 256.222 326.778C258.629 329.786 262.689 327 265.5 327C265.512 327 275.189 323.693 273.222 326.222C271.656 328.236 269.385 331.104 266.444 331.944C264.68 332.448 260.135 334.082 259 335.5C255.874 339.407 242.636 340.695 238.778 337.222C236.497 335.169 233.005 333.768 232.056 330.444C231.057 326.949 232.349 322.719 232.944 319.444C233.894 314.222 237.296 309.704 241 306C246.904 300.096 251.986 293.339 258.944 288.556C277.508 275.793 297.849 267.183 319 260C328.724 256.698 338.257 253.63 348.444 252C358.448 250.399 373.634 248.697 383 253C388.156 255.369 396.789 260.202 397.944 266.556C398.981 272.259 398.011 278.671 396.5 284.111C390.807 304.604 374.43 318.328 359.111 331.944C350.158 339.903 340.695 346.817 331 353.778C320.922 361.013 311.076 369.579 300 375.222C290.985 379.815 281.274 385.379 271.444 388C265.293 389.64 258.149 392.618 252.778 396C242.628 402.39 228.021 400 216.5 400C200.736 400 185.648 394.146 172.056 386.5C162 380.844 150.569 371.524 146.222 360.222C143.07 352.026 142.538 340.29 146.222 332C148.976 325.803 153.711 321.312 157 315.556C158.706 312.57 163.01 307.883 166 306.222C170.448 303.751 173.392 298.859 178 296.556C186.509 292.301 193.967 283.172 200.222 276.222C202.721 273.446 202 270.242 202 266.5C202 263.092 194.241 265.533 192.5 266.5C189.046 268.419 184.6 268.622 181 270.222C177.503 271.776 172.7 273.805 169 274C164.028 274.262 160.1 279.033 155.5 280.056C151.992 280.835 146.627 283.665 144 286C140.533 289.082 136.188 291.576 132.5 294.444C130.168 296.258 125.759 298.335 125.056 301.5C124.149 305.578 127.8 308.444 131 310.222C136.382 313.212 137 316.84 137 322.556C137 328.15 132.117 331.931 127 329.222C124.012 327.64 123.186 321.816 121.778 319C120.487 316.418 114 315.562 114 319.5V333C114 337.407 115 341.894 115 346.5C115 350.716 108.641 352.887 105.5 350.444C95.1766 342.415 107.011 332.911 104.944 323.611C104.315 320.78 87.7054 328.036 86.2222 329.222C79.3092 334.753 72.292 340 63.2222 340C56.9222 340 61.6341 332.97 63.5555 330.5C67.3073 325.676 75.3285 324.34 80.5 321.556C84.8553 319.21 88.6107 318.834 92.2222 315.222C95.0803 312.364 92.3097 310.387 90 307.5C85.5614 301.952 75.0977 307.359 69 307C65.7095 306.806 69.1739 300.461 71.5 299.944C76.2404 298.891 79.8769 297 85 297C89.2477 297 94.7139 296.397 98.5 298.5C101.956 300.42 105.528 300.59 108 297.5C111.004 293.744 116.831 288.23 121 285.778C126.455 282.569 130.101 277.5 135.5 274.5C142.054 270.859 147.552 265.349 154.056 261.556C160.551 257.766 167.208 254.174 174 250.778C176.589 249.483 183.357 248.553 185 246.5C186.956 244.055 192.471 244.623 194.778 242.778C199.228 239.218 210.803 235 216.5 235C220.415 235 224.153 235.908 226.222 232C227.909 228.813 229.245 225.626 231 222.556C234.428 216.556 234 210.284 234 203C234 194.677 227.033 192 220 192C210.926 192 200.648 199.995 193.733 205.374L193.5 205.556C180.995 215.282 159.29 208.38 145.778 204.222C141.478 202.899 136.041 203 131.5 203C125.924 203 125.535 204.11 121 206.778C117.998 208.544 115.401 212.188 112.5 214.444C111.696 215.07 108.043 215.598 107.222 214.778C106.961 214.516 109.694 210.429 110 210C111.56 207.816 116.135 198.361 110 198C105.288 197.723 102.03 203 97.5 203C82.9102 203 99.139 191.381 106 191C108.612 190.855 116.7 190.898 115.944 187.5C115.231 184.288 113 180.604 113 177.5C113 175.143 112.299 168.124 110.778 166.222C110.207 165.509 104.216 160.223 108 160C117.329 159.451 117.904 171.363 121.222 178C122.961 181.478 123.634 185.543 126 188.5C128.432 191.54 130 186.764 130 184.5C130 179.129 131.082 178.474 134.778 174.778C136.255 173.3 135.256 170.146 137 169.222C138.905 168.214 139.85 170 141.5 170C144.846 170 146.619 176.787 143 177C139.748 177.191 138 181.083 138 184C138 186.516 136.693 193 140.5 193C144.472 193 148.205 194 151.778 194C162.574 194 173.977 198.078 184.556 195.056C187.904 194.099 190.857 194.114 193.778 191.778C196.292 189.766 199.084 187.236 202 185.778C206.969 183.293 211.206 179.895 215.5 176.556C219.313 173.59 220 172.456 220 167.5C220 163.457 221 160.021 221 156C221 151.781 225.021 149.176 226.056 145.556C226.661 143.435 231.038 140.702 232.222 139.222C234.899 135.876 228.131 135.275 226 136.222C219.444 139.136 216.782 147.763 210 150.778C201.088 154.739 195.169 148.408 187.5 145C183.195 143.087 178.257 136.813 175 133.556C171.611 130.166 165.991 125.98 164 121.5C161.15 115.088 159.892 103.552 165.222 98.2222C171.734 91.7103 183.378 86.7041 192.444 85.0556Z"/>
</mask>
<path d="M192.444 85.0556C194.967 83.7547 225.242 84.952 225.5 86.0556C229.047 86.8437 232.392 89.5991 236 90C239.429 90.381 244.427 94.7931 247.5 96.5C251.189 98.5496 251.604 102.683 254.5 105C259.054 108.643 254.727 123 261.5 123C268.984 123 276.656 122.136 284 123C289.009 123.589 293.542 128.94 296.5 132.556C298.03 134.426 301.059 137.175 301.944 139.389C302.595 141.014 301.067 135.972 301 134.222C300.688 126.105 295.222 118.2 291.5 111.5C289.534 107.961 283.108 98 278.5 98C274.334 98 268.07 98.1097 264.222 96.7778C262.86 96.3064 262.23 92.7572 263.556 92C265.625 90.8174 267.44 91 269.778 91C271.889 91 275.932 91.5566 277.556 93C279.868 95.0557 278 91.8617 278 90.5C278 87.3061 275 83.769 275 80C275 77.0161 273.177 71.5615 270.444 70C266.852 67.9471 262.077 70.9285 263.056 65.0556C263.887 60.0691 276.18 65.0305 278.222 66.4444C283.78 70.2923 284.907 77.6888 287 83.4444C287.692 85.3485 287.539 88.4606 289.5 86.5C291.198 84.8018 292.664 82.116 293.778 80C295.288 77.1297 298 71.1883 298 68C298 63.9275 293.115 63.7309 294.056 59.5C295.252 54.1173 303.231 58.684 306 60.2222C308.362 61.5347 307.507 73.3393 306.5 75.5556C304.526 79.8979 300.41 93.4132 303.056 89.4444C304.659 87.0399 309.625 83.3751 312 81C315.113 77.8869 316.517 75.8372 318.222 72C319.291 69.596 325.798 66.542 326.944 70.5556C328.61 76.3848 325.451 75.9424 321.556 77.0556C318.594 77.9016 317.865 84.9021 316 87C312.898 90.4897 312.099 96.1205 308.5 99C302.686 103.651 310.891 114.754 313.222 120C316.092 126.457 321 135.612 321 143C321 146.008 320.529 165.508 318.556 164.944C313.591 163.526 309.912 157.553 305.444 155C303.35 153.803 290.452 144.992 288.444 147C287.516 147.929 290.837 148.697 291 150C291.119 150.954 292.705 152.514 293.556 153C295.793 154.278 297.859 158.598 298 161C298.393 167.678 299 175.289 299 182.5C299 191.366 294.789 201.78 290.5 209.5C288.032 213.942 284.31 216.856 281.778 221C280.007 223.898 283.879 218.432 285.222 217.222C291.785 211.315 300.827 207.618 307.222 201.222C309.323 199.121 312.566 196.954 314 194.444C315.748 191.385 320.511 189.051 322 186.444C323.359 184.067 326.729 181.98 329 180.778C332.421 178.967 336 174.804 336 180.556C336 189.517 332.981 198.174 332 207C331.921 207.708 331.647 208.855 331.294 210.113C332.239 208.603 333.279 207.122 334 205.5C336.472 199.938 340.218 195.465 345.222 192C346.917 190.827 357.717 185.92 355.778 192.222C353.906 198.307 347.147 201.12 342.556 205.056C341 206.389 341 208.612 341 210.469V210.5C341 213.337 342.788 211.071 344 211C352.224 210.516 357.144 201 366.5 201C371.358 201 373.872 204.709 370 208C365.748 211.614 359.087 212.358 354.389 215.611C351.328 217.73 342.762 220.708 343 225C343.261 229.69 351.136 225.167 353.222 225C359.652 224.486 371.668 219.224 377.222 224.778C383.845 231.401 359.919 231.62 356 232.056C350.527 232.664 343.529 232.814 338.444 235.222C336.202 236.284 346.044 235.691 347.5 236.5C349.708 237.727 352.94 237.089 355.444 238C357.47 238.737 359.149 240.689 361 241.778C365.594 244.48 361.17 247 358 247C349.951 247 342.198 246 334 246C331.749 246 323.423 247.279 322 245.5C319.635 242.544 320 240.404 320 236.5V224C320 219.707 322 215.796 322 211.5C322 209.126 323.307 201.027 320 202.778C317.468 204.118 316.058 207.183 314.222 209.222C307.586 216.596 303.651 226.518 297 234C291.008 240.741 288.899 250.69 281.5 256.444C271.746 264.031 259.761 269.231 253.5 280.5C247.371 291.532 239.36 301.3 231.778 310.778C227.757 315.803 223.968 321.821 221.222 328C218.129 334.96 221.263 342.169 223.056 348.444C223.912 351.444 229.133 355.504 232 356.778C235.599 358.377 242.616 356.709 246 355.5C260.262 350.406 275.756 343.621 288 334.778C299.757 326.286 313.519 320.92 322.5 308.944C325.281 305.236 329.746 298.827 330 294C330.204 290.118 328.394 288.148 328 285C326.45 272.603 289.88 294.427 285.556 296C277.532 298.918 270.048 304.762 263.5 310C260.418 312.466 252.947 322.683 256.222 326.778C258.629 329.786 262.689 327 265.5 327C265.512 327 275.189 323.693 273.222 326.222C271.656 328.236 269.385 331.104 266.444 331.944C264.68 332.448 260.135 334.082 259 335.5C255.874 339.407 242.636 340.695 238.778 337.222C236.497 335.169 233.005 333.768 232.056 330.444C231.057 326.949 232.349 322.719 232.944 319.444C233.894 314.222 237.296 309.704 241 306C246.904 300.096 251.986 293.339 258.944 288.556C277.508 275.793 297.849 267.183 319 260C328.724 256.698 338.257 253.63 348.444 252C358.448 250.399 373.634 248.697 383 253C388.156 255.369 396.789 260.202 397.944 266.556C398.981 272.259 398.011 278.671 396.5 284.111C390.807 304.604 374.43 318.328 359.111 331.944C350.158 339.903 340.695 346.817 331 353.778C320.922 361.013 311.076 369.579 300 375.222C290.985 379.815 281.274 385.379 271.444 388C265.293 389.64 258.149 392.618 252.778 396C242.628 402.39 228.021 400 216.5 400C200.736 400 185.648 394.146 172.056 386.5C162 380.844 150.569 371.524 146.222 360.222C143.07 352.026 142.538 340.29 146.222 332C148.976 325.803 153.711 321.312 157 315.556C158.706 312.57 163.01 307.883 166 306.222C170.448 303.751 173.392 298.859 178 296.556C186.509 292.301 193.967 283.172 200.222 276.222C202.721 273.446 202 270.242 202 266.5C202 263.092 194.241 265.533 192.5 266.5C189.046 268.419 184.6 268.622 181 270.222C177.503 271.776 172.7 273.805 169 274C164.028 274.262 160.1 279.033 155.5 280.056C151.992 280.835 146.627 283.665 144 286C140.533 289.082 136.188 291.576 132.5 294.444C130.168 296.258 125.759 298.335 125.056 301.5C124.149 305.578 127.8 308.444 131 310.222C136.382 313.212 137 316.84 137 322.556C137 328.15 132.117 331.931 127 329.222C124.012 327.64 123.186 321.816 121.778 319C120.487 316.418 114 315.562 114 319.5V333C114 337.407 115 341.894 115 346.5C115 350.716 108.641 352.887 105.5 350.444C95.1766 342.415 107.011 332.911 104.944 323.611C104.315 320.78 87.7054 328.036 86.2222 329.222C79.3092 334.753 72.292 340 63.2222 340C56.9222 340 61.6341 332.97 63.5555 330.5C67.3073 325.676 75.3285 324.34 80.5 321.556C84.8553 319.21 88.6107 318.834 92.2222 315.222C95.0803 312.364 92.3097 310.387 90 307.5C85.5614 301.952 75.0977 307.359 69 307C65.7095 306.806 69.1739 300.461 71.5 299.944C76.2404 298.891 79.8769 297 85 297C89.2477 297 94.7139 296.397 98.5 298.5C101.956 300.42 105.528 300.59 108 297.5C111.004 293.744 116.831 288.23 121 285.778C126.455 282.569 130.101 277.5 135.5 274.5C142.054 270.859 147.552 265.349 154.056 261.556C160.551 257.766 167.208 254.174 174 250.778C176.589 249.483 183.357 248.553 185 246.5C186.956 244.055 192.471 244.623 194.778 242.778C199.228 239.218 210.803 235 216.5 235C220.415 235 224.153 235.908 226.222 232C227.909 228.813 229.245 225.626 231 222.556C234.428 216.556 234 210.284 234 203C234 194.677 227.033 192 220 192C210.926 192 200.648 199.995 193.733 205.374L193.5 205.556C180.995 215.282 159.29 208.38 145.778 204.222C141.478 202.899 136.041 203 131.5 203C125.924 203 125.535 204.11 121 206.778C117.998 208.544 115.401 212.188 112.5 214.444C111.696 215.07 108.043 215.598 107.222 214.778C106.961 214.516 109.694 210.429 110 210C111.56 207.816 116.135 198.361 110 198C105.288 197.723 102.03 203 97.5 203C82.9102 203 99.139 191.381 106 191C108.612 190.855 116.7 190.898 115.944 187.5C115.231 184.288 113 180.604 113 177.5C113 175.143 112.299 168.124 110.778 166.222C110.207 165.509 104.216 160.223 108 160C117.329 159.451 117.904 171.363 121.222 178C122.961 181.478 123.634 185.543 126 188.5C128.432 191.54 130 186.764 130 184.5C130 179.129 131.082 178.474 134.778 174.778C136.255 173.3 135.256 170.146 137 169.222C138.905 168.214 139.85 170 141.5 170C144.846 170 146.619 176.787 143 177C139.748 177.191 138 181.083 138 184C138 186.516 136.693 193 140.5 193C144.472 193 148.205 194 151.778 194C162.574 194 173.977 198.078 184.556 195.056C187.904 194.099 190.857 194.114 193.778 191.778C196.292 189.766 199.084 187.236 202 185.778C206.969 183.293 211.206 179.895 215.5 176.556C219.313 173.59 220 172.456 220 167.5C220 163.457 221 160.021 221 156C221 151.781 225.021 149.176 226.056 145.556C226.661 143.435 231.038 140.702 232.222 139.222C234.899 135.876 228.131 135.275 226 136.222C219.444 139.136 216.782 147.763 210 150.778C201.088 154.739 195.169 148.408 187.5 145C183.195 143.087 178.257 136.813 175 133.556C171.611 130.166 165.991 125.98 164 121.5C161.15 115.088 159.892 103.552 165.222 98.2222C171.734 91.7103 183.378 86.7041 192.444 85.0556Z" fill="url(#paint1_linear_1_30)"/>
<path d="M331.294 210.113L333.701 210.789L329.175 208.787L331.294 210.113ZM329.175 208.787C327.917 210.795 326.5 213.322 326.5 216.5H331.5C331.5 214.837 332.216 213.351 333.413 211.44L329.175 208.787ZM326.5 216.5C326.5 216.602 326.504 216.806 326.554 217.05C326.583 217.192 326.72 217.882 327.354 218.447C327.732 218.784 328.239 219.028 328.822 219.075C329.367 219.119 329.805 218.979 330.079 218.853C330.57 218.627 330.859 218.3 330.94 218.208C331.151 217.969 331.282 217.729 331.328 217.645C331.395 217.522 331.455 217.398 331.505 217.289C331.697 216.87 331.93 216.265 332.164 215.611C332.645 214.27 333.237 212.441 333.701 210.789L328.887 209.438C328.456 210.973 327.901 212.689 327.458 213.922C327.232 214.554 327.058 214.991 326.96 215.206C326.937 215.255 326.932 215.264 326.942 215.245C326.947 215.235 326.965 215.203 326.995 215.158C327.019 215.12 327.082 215.024 327.183 214.909C327.244 214.84 327.516 214.528 327.991 214.309C328.258 214.187 328.689 214.048 329.227 214.091C329.804 214.138 330.305 214.38 330.678 214.712C331.302 215.267 331.431 215.94 331.454 216.055C331.498 216.273 331.5 216.442 331.5 216.5H326.5ZM225.5 86.0556L220.631 87.1917L221.345 90.2543L224.415 90.9365L225.5 86.0556ZM192.444 85.0556L193.339 89.9749L194.073 89.8414L194.736 89.4993L192.444 85.0556ZM165.222 98.2222L161.687 94.6867L161.687 94.6867L165.222 98.2222ZM164 121.5L159.431 123.531L159.431 123.531L164 121.5ZM187.5 145L185.469 149.569L185.469 149.569L187.5 145ZM210 150.778L212.031 155.347L212.031 155.347L210 150.778ZM226 136.222L223.969 131.653L223.969 131.653L226 136.222ZM232.222 139.222L236.127 142.346L236.127 142.346L232.222 139.222ZM215.5 176.556L212.43 172.609L212.43 172.609L215.5 176.556ZM202 185.778L199.764 181.306L199.764 181.306L202 185.778ZM193.778 191.778L196.901 195.682L196.901 195.682L193.778 191.778ZM184.556 195.056L183.182 190.248L183.182 190.248L184.556 195.056ZM143 177L143.294 181.991L143.294 181.991L143 177ZM137 169.222L139.339 173.641L139.339 173.641L137 169.222ZM126 188.5L129.904 185.377L129.904 185.377L126 188.5ZM108 160L108.294 164.991L108.294 164.991L108 160ZM110.778 166.222L106.873 169.346L106.873 169.346L110.778 166.222ZM115.944 187.5L111.063 188.585L111.064 188.585L115.944 187.5ZM106 191L106.277 195.992L106.277 195.992L106 191ZM110 198L110.294 193.009L110.294 193.009L110 198ZM110 210L105.931 207.094L105.931 207.094L110 210ZM107.222 214.778L110.758 211.242L110.758 211.242L107.222 214.778ZM112.5 214.444L115.57 218.391L115.57 218.391L112.5 214.444ZM121 206.778L118.465 202.468L118.465 202.468L121 206.778ZM145.778 204.222L144.307 209.001L144.307 209.001L145.778 204.222ZM193.5 205.556L196.57 209.502L196.57 209.502L193.5 205.556ZM193.733 205.374L190.663 201.428L190.663 201.428L193.733 205.374ZM231 222.556L235.341 225.036L235.341 225.036L231 222.556ZM226.222 232L230.641 234.339L230.641 234.339L226.222 232ZM194.778 242.778L191.654 238.873L191.654 238.873L194.778 242.778ZM185 246.5L181.096 243.377L181.096 243.377L185 246.5ZM174 250.778L176.236 255.25L176.236 255.25L174 250.778ZM154.056 261.556L156.575 265.874L156.575 265.874L154.056 261.556ZM135.5 274.5L137.928 278.871L137.928 278.871L135.5 274.5ZM121 285.778L123.535 290.087L123.535 290.087L121 285.778ZM108 297.5L104.096 294.377L104.096 294.377L108 297.5ZM98.5 298.5L96.0718 302.871L96.0718 302.871L98.5 298.5ZM71.5 299.944L70.4153 295.064L70.4153 295.064L71.5 299.944ZM69 307L68.7064 311.991L68.7064 311.991L69 307ZM90 307.5L86.0956 310.623L86.0956 310.623L90 307.5ZM92.2222 315.222L95.7577 318.758L95.7577 318.758L92.2222 315.222ZM80.5 321.556L78.1295 317.153L78.1295 317.153L80.5 321.556ZM63.5555 330.5L67.5023 333.57L67.5023 333.57L63.5555 330.5ZM86.2222 329.222L89.3457 333.127L89.3457 333.127L86.2222 329.222ZM104.944 323.611L109.825 322.526L109.825 322.526L104.944 323.611ZM105.5 350.444L102.43 354.391L102.43 354.391L105.5 350.444ZM121.778 319L117.306 321.236L117.306 321.236L121.778 319ZM127 329.222L129.339 324.803L129.339 324.803L127 329.222ZM131 310.222L128.572 314.593L128.572 314.593L131 310.222ZM125.056 301.5L129.936 302.585L129.936 302.585L125.056 301.5ZM132.5 294.444L129.43 290.498L129.43 290.498L132.5 294.444ZM144 286L140.678 282.263L140.678 282.263L144 286ZM155.5 280.056L156.585 284.936L156.585 284.936L155.5 280.056ZM169 274L168.737 269.007L168.737 269.007L169 274ZM181 270.222L178.969 265.653L178.969 265.653L181 270.222ZM192.5 266.5L194.928 270.871L194.928 270.871L192.5 266.5ZM200.222 276.222L196.506 272.877L196.506 272.877L200.222 276.222ZM178 296.556L180.236 301.028L180.236 301.028L178 296.556ZM166 306.222L163.572 301.851L163.572 301.851L166 306.222ZM157 315.556L152.659 313.075L152.659 313.075L157 315.556ZM146.222 332L150.791 334.031L150.791 334.031L146.222 332ZM146.222 360.222L150.889 358.427L150.889 358.427L146.222 360.222ZM172.056 386.5L169.604 390.858L169.604 390.858L172.056 386.5ZM252.778 396L250.114 391.769L250.114 391.769L252.778 396ZM271.444 388L270.156 383.169L270.156 383.169L271.444 388ZM300 375.222L297.73 370.767L297.73 370.767L300 375.222ZM331 353.778L328.084 349.716L328.084 349.716L331 353.778ZM359.111 331.944L362.433 335.682L362.433 335.682L359.111 331.944ZM396.5 284.111L391.682 282.773L391.682 282.773L396.5 284.111ZM397.944 266.556L393.025 267.45L393.025 267.45L397.944 266.556ZM383 253L380.912 257.543L380.913 257.543L383 253ZM348.444 252L349.234 256.937L349.234 256.937L348.444 252ZM319 260L317.392 255.266L317.392 255.266L319 260ZM258.944 288.556L261.777 292.676L261.777 292.676L258.944 288.556ZM232.944 319.444L237.864 320.339L237.864 320.339L232.944 319.444ZM232.056 330.444L236.863 329.071L236.863 329.071L232.056 330.444ZM238.778 337.222L242.123 333.506L242.123 333.506L238.778 337.222ZM259 335.5L255.096 332.377L255.096 332.377L259 335.5ZM266.444 331.944L265.071 327.137L265.071 327.137L266.444 331.944ZM273.222 326.222L269.275 323.153L269.275 323.153L273.222 326.222ZM256.222 326.778L252.318 329.901L252.318 329.901L256.222 326.778ZM263.5 310L260.377 306.096L260.377 306.096L263.5 310ZM285.556 296L283.847 291.301L283.847 291.301L285.556 296ZM328 285L323.039 285.62L323.039 285.62L328 285ZM330 294L325.007 293.737L325.007 293.737L330 294ZM322.5 308.944L318.5 305.944L318.5 305.944L322.5 308.944ZM288 334.778L290.927 338.831L290.927 338.831L288 334.778ZM246 355.5L244.318 350.791L244.318 350.791L246 355.5ZM232 356.778L234.031 352.209L234.031 352.209L232 356.778ZM223.056 348.444L227.863 347.071L227.863 347.071L223.056 348.444ZM221.222 328L216.653 325.969L216.653 325.969L221.222 328ZM231.778 310.778L235.682 313.901L235.682 313.901L231.778 310.778ZM253.5 280.5L249.129 278.072L249.129 278.072L253.5 280.5ZM281.5 256.444L284.57 260.391L284.57 260.391L281.5 256.444ZM297 234L293.263 230.678L293.263 230.678L297 234ZM314.222 209.222L317.939 212.567L317.939 212.567L314.222 209.222ZM320 202.778L317.661 198.359L317.661 198.359L320 202.778ZM322 245.5L318.096 248.623L318.096 248.623L322 245.5ZM361 241.778L363.535 237.468L363.535 237.468L361 241.778ZM355.444 238L357.153 233.301L357.153 233.301L355.444 238ZM347.5 236.5L345.072 240.871L345.072 240.871L347.5 236.5ZM338.444 235.222L340.585 239.741L340.585 239.741L338.444 235.222ZM356 232.056L356.552 237.025L356.552 237.025L356 232.056ZM377.222 224.778L380.758 221.242L380.758 221.242L377.222 224.778ZM353.222 225L352.823 220.016L352.823 220.016L353.222 225ZM343 225L347.992 224.723L347.992 224.723L343 225ZM354.389 215.611L357.235 219.722L357.235 219.722L354.389 215.611ZM370 208L366.762 204.19L366.762 204.19L370 208ZM344 211L343.706 206.009L343.706 206.009L344 211ZM341 210.469L346 210.469L346 210.469L341 210.469ZM342.556 205.056L339.302 201.259L339.302 201.259L342.556 205.056ZM355.778 192.222L350.999 190.752L350.999 190.752L355.778 192.222ZM345.222 192L348.068 196.111L348.068 196.111L345.222 192ZM334 205.5L338.569 207.531L338.569 207.531L334 205.5ZM331.294 210.113L326.48 208.762L335.532 212.767L331.294 210.113ZM332 207L336.969 207.552L336.969 207.552L332 207ZM329 180.778L326.661 176.359L326.661 176.359L329 180.778ZM322 186.444L317.659 183.964L317.659 183.964L322 186.444ZM314 194.444L318.341 196.925L318.341 196.925L314 194.444ZM285.222 217.222L288.567 220.939L288.567 220.939L285.222 217.222ZM281.778 221L286.044 223.607L286.044 223.607L281.778 221ZM290.5 209.5L286.129 207.072L286.129 207.072L290.5 209.5ZM298 161L302.991 160.706L302.991 160.706L298 161ZM293.556 153L296.036 148.659L296.036 148.659L293.556 153ZM291 150L286.039 150.62L286.039 150.62L291 150ZM288.444 147L284.909 143.464L284.909 143.464L288.444 147ZM305.444 155L302.964 159.341L302.964 159.341L305.444 155ZM318.556 164.944L317.182 169.752L317.182 169.752L318.556 164.944ZM313.222 120L308.653 122.031L308.653 122.031L313.222 120ZM308.5 99L305.377 95.0957L305.377 95.0957L308.5 99ZM316 87L319.737 90.3218L319.737 90.3218L316 87ZM321.556 77.0556L322.929 81.8632L322.929 81.8632L321.556 77.0556ZM326.944 70.5556L322.137 71.9291L322.137 71.9292L326.944 70.5556ZM318.222 72L322.791 74.0307L322.791 74.0307L318.222 72ZM312 81L308.464 77.4645L308.464 77.4645L312 81ZM303.056 89.4444L298.895 86.6709L298.895 86.6709L303.056 89.4444ZM306.5 75.5556L301.948 73.4865L301.948 73.4865L306.5 75.5556ZM306 60.2222L308.428 55.8514L308.428 55.8514L306 60.2222ZM294.056 59.5L298.936 60.5846L298.936 60.5846L294.056 59.5ZM293.778 80L298.202 82.3287L298.202 82.3287L293.778 80ZM289.5 86.5L293.036 90.0355L293.036 90.0355L289.5 86.5ZM287 83.4444L291.699 81.7357L291.699 81.7357L287 83.4444ZM278.222 66.4444L275.376 70.5554L275.376 70.5554L278.222 66.4444ZM263.056 65.0556L267.988 65.8776L267.988 65.8775L263.056 65.0556ZM270.444 70L267.964 74.3412L267.964 74.3412L270.444 70ZM277.556 93L274.234 96.737L274.234 96.737L277.556 93ZM263.556 92L266.036 96.3412L266.036 96.3412L263.556 92ZM264.222 96.7778L262.587 101.503L262.587 101.503L264.222 96.7778ZM291.5 111.5L287.129 113.928L287.129 113.928L291.5 111.5ZM301 134.222L296.004 134.414L296.004 134.414L301 134.222ZM301.944 139.389L297.302 141.246L297.302 141.246L301.944 139.389ZM296.5 132.556L292.63 135.722L292.63 135.722L296.5 132.556ZM284 123L283.416 127.966L283.416 127.966L284 123ZM254.5 105L257.623 101.096L257.623 101.096L254.5 105ZM247.5 96.5L249.928 92.1292L249.928 92.1292L247.5 96.5ZM236 90L236.552 85.0306L236.552 85.0306L236 90ZM230.369 84.9194C230.06 83.5963 229.315 82.7577 228.883 82.3533C228.432 81.9309 227.995 81.6748 227.741 81.5393C227.233 81.2687 226.763 81.121 226.516 81.0487C225.971 80.8897 225.384 80.782 224.891 80.704C223.854 80.5396 222.498 80.3954 221.004 80.2687C217.98 80.0123 214.004 79.796 209.995 79.6569C205.985 79.5178 201.865 79.4532 198.554 79.5085C196.907 79.536 195.391 79.5942 194.161 79.6972C193.551 79.7483 192.936 79.8165 192.375 79.9136C191.964 79.9848 191.041 80.1534 190.153 80.6118L194.736 89.4993C194.163 89.7951 193.772 89.8206 194.082 89.7669C194.241 89.7393 194.536 89.7008 194.996 89.6623C195.906 89.5861 197.171 89.533 198.721 89.5071C201.804 89.4556 205.741 89.5154 209.648 89.6509C213.555 89.7865 217.354 89.9951 220.159 90.2329C221.578 90.3533 222.65 90.4735 223.327 90.5808C223.692 90.6386 223.784 90.6685 223.712 90.6477C223.701 90.6445 223.416 90.566 223.038 90.3645C222.849 90.2636 222.464 90.0421 222.049 89.6542C221.654 89.2844 220.931 88.4803 220.631 87.1917L230.369 84.9194ZM191.55 80.1362C181.816 81.9061 169.125 87.2485 161.687 94.6867L168.758 101.758C174.343 96.1722 184.939 91.5021 193.339 89.9749L191.55 80.1362ZM161.687 94.6867C157.646 98.7272 156.539 104.562 156.544 109.46C156.549 114.496 157.717 119.675 159.431 123.531L168.569 119.469C167.433 116.913 166.547 113.117 166.544 109.45C166.54 105.645 167.468 103.047 168.758 101.758L161.687 94.6867ZM159.431 123.531C160.836 126.691 163.332 129.412 165.481 131.513C166.597 132.604 167.75 133.648 168.771 134.574C169.825 135.531 170.718 136.345 171.464 137.091L178.536 130.02C177.587 129.071 176.507 128.091 175.492 127.17C174.444 126.218 173.431 125.3 172.47 124.361C170.465 122.401 169.155 120.789 168.569 119.469L159.431 123.531ZM171.464 137.091C172.187 137.814 173.026 138.727 174.039 139.831C175.021 140.9 176.134 142.111 177.294 143.289C179.48 145.511 182.368 148.191 185.469 149.569L189.531 140.431C188.327 139.896 186.594 138.482 184.421 136.275C183.4 135.238 182.399 134.15 181.405 133.067C180.442 132.018 179.442 130.926 178.536 130.02L171.464 137.091ZM185.469 149.569C187.118 150.302 188.707 151.207 190.521 152.241C192.25 153.227 194.237 154.363 196.324 155.252C200.768 157.146 205.969 158.041 212.031 155.347L207.969 146.209C205.119 147.475 202.904 147.186 200.244 146.052C198.778 145.428 197.29 144.59 195.475 143.554C193.743 142.567 191.716 141.402 189.531 140.431L185.469 149.569ZM212.031 155.347C216.71 153.267 219.786 149.323 221.98 146.598C224.49 143.48 226.059 141.668 228.031 140.791L223.969 131.653C219.385 133.691 216.345 137.649 214.19 140.327C211.719 143.397 210.073 145.274 207.969 146.209L212.031 155.347ZM228.031 140.791C227.805 140.892 227.719 140.89 227.857 140.866C227.967 140.847 228.148 140.826 228.385 140.819C228.897 140.805 229.347 140.866 229.578 140.931C229.689 140.961 229.609 140.954 229.42 140.841C229.242 140.734 228.74 140.396 228.333 139.682C227.868 138.864 227.745 137.928 227.908 137.113C227.979 136.756 228.091 136.493 228.173 136.335C228.254 136.178 228.317 136.1 228.318 136.099L236.127 142.346C237.427 140.72 238.759 137.784 237.025 134.736C235.71 132.426 233.368 131.604 232.25 131.294C230.857 130.908 229.383 130.788 228.11 130.823C226.933 130.855 225.362 131.034 223.969 131.653L228.031 140.791ZM228.318 136.099C228.366 136.039 228.23 136.199 227.61 136.725C227.242 137.038 226.247 137.854 225.662 138.357C224.953 138.968 224.111 139.726 223.373 140.555C222.712 141.298 221.714 142.551 221.248 144.182L230.863 146.929C230.7 147.5 230.476 147.616 230.843 147.204C231.133 146.878 231.574 146.463 232.182 145.94C232.915 145.31 233.274 145.033 234.079 144.351C234.631 143.883 235.487 143.145 236.127 142.346L228.318 136.099ZM221.248 144.182C221.026 144.958 220.516 145.57 219.035 147.698C217.835 149.424 216 152.236 216 156H226C226 155.545 226.176 154.945 227.245 153.408C228.033 152.274 230.051 149.773 230.863 146.929L221.248 144.182ZM216 156C216 157.627 215.8 159.171 215.544 161.078C215.299 162.908 215 165.096 215 167.5H225C225 165.861 225.201 164.31 225.456 162.406C225.7 160.579 226 158.394 226 156H216ZM215 167.5C215 169.926 214.787 170.383 214.724 170.506C214.64 170.671 214.377 171.095 212.43 172.609L218.57 180.502C220.436 179.051 222.423 177.425 223.636 175.042C224.87 172.618 225 170.03 225 167.5H215ZM212.43 172.609C208.016 176.042 204.197 179.089 199.764 181.306L204.236 190.25C209.74 187.498 214.396 183.748 218.57 180.502L212.43 172.609ZM199.764 181.306C196.223 183.076 192.775 186.177 190.654 187.873L196.901 195.682C199.809 193.356 201.944 191.396 204.236 190.25L199.764 181.306ZM190.654 187.873C189.905 188.473 189.139 188.808 188.033 189.105C187.425 189.267 186.798 189.398 185.953 189.579C185.155 189.75 184.197 189.958 183.182 190.248L185.929 199.863C186.588 199.675 187.255 199.526 188.043 199.358C188.785 199.199 189.707 199.009 190.621 198.764C192.559 198.245 194.73 197.419 196.901 195.682L190.654 187.873ZM183.182 190.248C178.884 191.476 174.209 191.32 168.825 190.695C163.76 190.106 157.56 189 151.778 189V199C156.792 199 161.691 199.933 167.671 200.628C173.332 201.286 179.648 201.658 185.929 199.863L183.182 190.248ZM151.778 189C150.387 189 148.909 188.805 146.949 188.544C145.104 188.298 142.864 188 140.5 188V198C142.108 198 143.721 198.202 145.628 198.456C147.421 198.695 149.595 199 151.778 199V189ZM140.5 188C140.755 188 141.214 188.061 141.724 188.344C142.231 188.625 142.549 188.992 142.719 189.259C142.971 189.654 142.861 189.755 142.808 189.059C142.762 188.465 142.784 187.715 142.845 186.795C142.891 186.08 143 184.847 143 184H133C133 184.411 132.945 184.932 132.866 186.141C132.8 187.144 132.734 188.486 132.837 189.828C132.933 191.068 133.21 192.947 134.288 194.636C135.599 196.692 137.804 198 140.5 198V188ZM143 184C143 183.752 143.04 183.409 143.144 183.033C143.247 182.657 143.389 182.34 143.531 182.111C143.675 181.879 143.763 181.826 143.725 181.853C143.657 181.901 143.493 181.98 143.294 181.991L142.706 172.009C138.929 172.231 136.408 174.621 135.03 176.845C133.668 179.044 133 181.668 133 184H143ZM143.294 181.991C146.126 181.825 148.323 180.162 149.346 177.815C150.21 175.832 150.085 173.776 149.727 172.265C149.353 170.689 148.575 169.045 147.358 167.704C146.133 166.354 144.142 165 141.5 165V175C140.531 175 140.017 174.495 139.952 174.423C139.896 174.361 139.962 174.428 139.997 174.575C140.048 174.787 139.896 174.468 140.18 173.818C140.347 173.435 140.671 172.947 141.226 172.555C141.788 172.158 142.345 172.03 142.706 172.009L143.294 181.991ZM141.5 165C141.753 165 141.966 165.035 142.124 165.075C142.2 165.093 142.258 165.112 142.297 165.126C142.316 165.133 142.331 165.138 142.34 165.142C142.35 165.146 142.355 165.148 142.355 165.148C142.355 165.148 142.351 165.146 142.342 165.142C142.332 165.138 142.319 165.131 142.3 165.122C142.261 165.103 142.211 165.078 142.136 165.039C142.018 164.979 141.745 164.836 141.476 164.709C140.913 164.444 139.904 164.016 138.609 163.93C137.22 163.836 135.884 164.156 134.661 164.803L139.339 173.641C139.069 173.785 138.565 173.949 137.94 173.907C137.41 173.872 137.098 173.701 137.216 173.757C137.287 173.79 137.349 173.823 137.571 173.937C137.75 174.029 138.045 174.179 138.382 174.325C139.08 174.627 140.154 175 141.5 175V165ZM134.661 164.803C132.864 165.755 131.934 167.254 131.465 168.458C131.051 169.522 130.907 170.599 130.838 171.097C130.738 171.806 130.715 171.968 130.679 172.1C130.662 172.164 130.765 171.719 131.242 171.242L138.313 178.313C139.529 177.097 140.062 175.704 140.327 174.732C140.573 173.828 140.687 172.867 140.74 172.487C140.823 171.896 140.849 171.919 140.784 172.086C140.665 172.393 140.264 173.152 139.339 173.641L134.661 164.803ZM131.242 171.242C129.736 172.749 127.815 174.488 126.649 176.552C125.271 178.993 125 181.561 125 184.5H135C135 182.068 135.27 181.622 135.357 181.469C135.445 181.313 135.627 181.048 136.126 180.514C136.67 179.931 137.294 179.333 138.313 178.313L131.242 171.242ZM125 184.5C125 184.5 125 184.523 124.996 184.572C124.993 184.619 124.986 184.681 124.976 184.756C124.955 184.908 124.921 185.083 124.875 185.261C124.768 185.676 124.664 185.852 124.69 185.81C124.709 185.781 124.853 185.554 125.181 185.287C125.528 185.005 126.171 184.612 127.086 184.508C129.132 184.275 130.09 185.608 129.904 185.377L122.096 191.623C123.126 192.912 125.192 194.788 128.216 194.444C130.993 194.128 132.525 192.127 133.134 191.168C134.446 189.099 135 186.356 135 184.5H125ZM129.904 185.377C129.245 184.552 128.708 183.428 128.059 181.693C127.494 180.182 126.721 177.818 125.694 175.764L116.75 180.236C117.462 181.66 117.896 183.067 118.693 185.198C119.407 187.104 120.39 189.491 122.096 191.623L129.904 185.377ZM125.694 175.764C125.06 174.496 124.512 172.874 123.821 170.759C123.181 168.796 122.415 166.399 121.405 164.211C120.396 162.023 118.949 159.59 116.674 157.756C114.251 155.801 111.23 154.801 107.706 155.009L108.294 164.991C109.434 164.924 109.984 165.207 110.396 165.54C110.957 165.992 111.61 166.849 112.325 168.4C113.04 169.95 113.623 171.742 114.315 173.862C114.957 175.83 115.725 178.185 116.75 180.236L125.694 175.764ZM107.706 155.009C106.768 155.064 105.171 155.305 103.776 156.488C102.107 157.904 101.663 159.831 101.77 161.322C101.861 162.595 102.332 163.623 102.646 164.217C102.996 164.879 103.41 165.474 103.779 165.957C104.515 166.923 105.37 167.832 105.986 168.466C106.298 168.787 106.598 169.087 106.785 169.276C107.083 169.577 107.008 169.514 106.873 169.346L114.682 163.099C114.405 162.752 114.017 162.367 113.893 162.242C113.658 162.005 113.426 161.773 113.156 161.495C112.606 160.93 112.093 160.369 111.733 159.897C111.65 159.787 111.587 159.699 111.542 159.631C111.496 159.562 111.481 159.532 111.485 159.54C111.487 159.543 111.53 159.623 111.581 159.772C111.629 159.913 111.716 160.204 111.745 160.609C111.813 161.563 111.518 163.035 110.243 164.116C109.722 164.558 109.215 164.771 108.89 164.872C108.571 164.972 108.349 164.988 108.294 164.991L107.706 155.009ZM106.873 169.346C106.605 169.01 106.717 168.996 106.965 169.851C107.167 170.543 107.358 171.452 107.522 172.479C107.855 174.564 108 176.639 108 177.5H118C118 176.004 117.795 173.392 117.397 170.902C117.196 169.642 116.926 168.292 116.568 167.06C116.257 165.99 115.712 164.386 114.682 163.099L106.873 169.346ZM108 177.5C108 180.072 108.894 182.552 109.528 184.228C110.295 186.257 110.809 187.439 111.063 188.585L120.825 186.415C120.366 184.349 119.408 182.083 118.881 180.691C118.221 178.946 118 178.032 118 177.5H108ZM111.064 188.585C110.938 188.021 110.959 187.244 111.324 186.476C111.653 185.784 112.097 185.441 112.245 185.339C112.428 185.214 112.243 185.377 111.294 185.559C109.476 185.908 107.387 185.915 105.723 186.008L106.277 195.992C107.225 195.94 110.486 195.896 113.176 195.381C114.481 195.13 116.34 194.659 117.908 193.581C118.749 193.003 119.722 192.105 120.358 190.764C121.031 189.347 121.14 187.829 120.825 186.415L111.064 188.585ZM105.723 186.008C102.982 186.16 99.9482 187.319 97.468 188.575C94.8914 189.879 92.2384 191.63 90.2525 193.527C89.2754 194.46 88.2476 195.629 87.5371 196.989C86.8514 198.301 86.0986 200.532 87.0441 202.98C88.0057 205.47 90.1348 206.674 91.7893 207.235C93.4656 207.804 95.4247 208 97.5 208V198C95.9278 198 95.2026 197.833 95.0006 197.765C94.7768 197.689 95.8339 197.983 96.3724 199.377C96.6242 200.029 96.6306 200.623 96.5703 201.028C96.5145 201.404 96.4058 201.609 96.4007 201.619C96.3917 201.636 96.4317 201.557 96.5698 201.387C96.7037 201.221 96.8968 201.01 97.1594 200.759C98.2646 199.703 100.043 198.479 101.983 197.497C104.02 196.466 105.587 196.031 106.277 195.992L105.723 186.008ZM97.5 208C101.546 208 104.816 205.626 106.413 204.584C108.598 203.159 109.241 202.964 109.706 202.991L110.294 193.009C106.047 192.759 102.705 195.064 100.95 196.208C98.6082 197.735 97.9835 198 97.5 198V208ZM109.706 202.991C109.823 202.998 109.534 203.003 109.107 202.726C108.643 202.426 108.346 202.007 108.2 201.663C108.008 201.206 108.214 201.25 107.996 202.273C107.812 203.135 107.438 204.168 106.98 205.162C106.513 206.175 106.084 206.88 105.931 207.094L114.069 212.906C115.179 211.351 117.038 207.817 117.776 204.359C118.13 202.7 118.427 200.177 117.415 197.778C116.86 196.462 115.926 195.228 114.544 194.333C113.198 193.462 111.711 193.092 110.294 193.009L109.706 202.991ZM105.931 207.094C105.698 207.421 104.877 208.645 104.152 209.812C103.791 210.393 103.387 211.065 103.077 211.655C102.936 211.924 102.725 212.342 102.558 212.798C102.485 212.998 102.324 213.459 102.248 214.045C102.21 214.339 102.164 214.879 102.27 215.538C102.376 216.194 102.694 217.321 103.687 218.313L110.758 211.242C111.734 212.219 112.042 213.321 112.143 213.947C112.244 214.575 112.198 215.077 112.166 215.326C112.102 215.823 111.973 216.169 111.95 216.232C111.884 216.413 111.846 216.465 111.929 216.307C112.067 216.044 112.317 215.618 112.645 215.091C112.959 214.586 113.295 214.066 113.574 213.643C113.713 213.433 113.833 213.253 113.926 213.116C114.029 212.963 114.072 212.901 114.069 212.906L105.931 207.094ZM103.687 218.313C105.165 219.792 107.051 220.049 107.688 220.125C108.626 220.236 109.565 220.206 110.347 220.13C111.15 220.053 111.979 219.91 112.738 219.708C113.282 219.563 114.516 219.211 115.57 218.391L109.43 210.498C109.661 210.318 109.855 210.207 109.96 210.151C110.072 210.091 110.153 210.056 110.189 210.042C110.256 210.015 110.254 210.021 110.165 210.044C109.987 210.092 109.701 210.146 109.387 210.177C109.238 210.191 109.108 210.197 109.006 210.198C108.899 210.199 108.856 210.193 108.872 210.195C108.872 210.195 109.037 210.212 109.3 210.304C109.529 210.384 110.142 210.626 110.758 211.242L103.687 218.313ZM115.57 218.391C117.36 216.999 119.05 215.184 120.281 213.929C121.693 212.489 122.675 211.593 123.535 211.087L118.465 202.468C116.323 203.728 114.505 205.537 113.143 206.926C111.6 208.498 110.541 209.634 109.43 210.498L115.57 218.391ZM123.535 211.087C124.755 210.37 125.738 209.731 126.433 209.294C127.177 208.825 127.571 208.601 127.907 208.45C128.355 208.249 129.047 208 131.5 208V198C128.377 198 126.086 198.306 123.812 199.327C122.787 199.787 121.885 200.34 121.106 200.831C120.279 201.351 119.513 201.852 118.465 202.468L123.535 211.087ZM131.5 208C136.356 208 140.896 207.951 144.307 209.001L147.248 199.443C142.06 197.847 135.726 198 131.5 198V208ZM144.307 209.001C150.968 211.051 160.218 213.968 169.427 215.06C178.528 216.14 188.742 215.591 196.57 209.502L190.43 201.609C185.753 205.246 178.861 206.109 170.605 205.13C162.458 204.164 154.099 201.551 147.248 199.443L144.307 209.001ZM196.57 209.502L196.803 209.321L190.663 201.428L190.43 201.609L196.57 209.502ZM196.803 209.321C200.297 206.603 204.343 203.464 208.581 200.986C212.904 198.458 216.804 197 220 197V187C214.122 187 208.346 189.539 203.533 192.354C198.635 195.218 194.084 198.766 190.663 201.428L196.803 209.321ZM220 197C223.014 197 225.416 197.595 226.906 198.567C228.088 199.338 229 200.499 229 203H239C239 197.177 236.429 192.839 232.369 190.191C228.617 187.743 224.019 187 220 187V197ZM229 203C229 210.848 229.274 215.498 226.659 220.075L235.341 225.036C239.582 217.615 239 209.72 239 203H229ZM226.659 220.075C225.69 221.77 224.854 223.467 224.085 225.056C223.297 226.685 222.593 228.169 221.803 229.661L230.641 234.339C231.539 232.644 232.346 230.942 233.086 229.413C233.846 227.844 234.555 226.412 235.341 225.036L226.659 220.075ZM221.803 229.661C221.631 229.986 221.548 229.996 221.623 229.947C221.675 229.912 221.625 229.972 221.286 230.025C220.904 230.084 220.372 230.105 219.509 230.083C218.82 230.065 217.539 230 216.5 230V240C217.418 240 218.073 240.049 219.251 240.079C220.254 240.105 221.52 240.109 222.821 239.906C224.165 239.698 225.681 239.252 227.138 238.289C228.618 237.31 229.779 235.968 230.641 234.339L221.803 229.661ZM216.5 230C212.766 230 207.788 231.297 203.477 232.85C199.15 234.409 194.526 236.576 191.654 238.873L197.901 246.682C199.479 245.42 202.869 243.698 206.866 242.258C210.879 240.812 214.537 240 216.5 240V230ZM191.654 238.873C191.866 238.704 191.861 238.795 191.202 238.98C190.551 239.162 189.859 239.288 188.747 239.517C187.783 239.716 186.479 240 185.229 240.481C183.98 240.963 182.357 241.8 181.096 243.377L188.904 249.623C188.621 249.978 188.42 249.969 188.828 249.812C189.234 249.655 189.82 249.507 190.767 249.311C191.567 249.146 192.808 248.915 193.902 248.609C194.986 248.305 196.536 247.774 197.901 246.682L191.654 238.873ZM181.096 243.377C181.48 242.897 181.7 242.943 180.949 243.271C180.345 243.536 179.513 243.813 178.449 244.125C177.931 244.277 177.4 244.425 176.843 244.58C176.298 244.732 175.722 244.893 175.169 245.055C174.145 245.356 172.851 245.762 171.764 246.306L176.236 255.25C176.444 255.146 176.966 254.95 177.991 254.649C178.463 254.51 178.968 254.369 179.527 254.213C180.074 254.061 180.669 253.895 181.261 253.722C182.418 253.383 183.748 252.962 184.956 252.434C186.016 251.97 187.699 251.13 188.904 249.623L181.096 243.377ZM171.764 246.306C164.88 249.748 158.128 253.392 151.536 257.237L156.575 265.874C162.975 262.141 169.537 258.599 176.236 255.25L171.764 246.306ZM151.536 257.237C147.958 259.324 144.696 261.86 141.753 264.118C138.715 266.449 135.979 268.514 133.072 270.129L137.928 278.871C141.575 276.845 144.865 274.334 147.84 272.052C150.911 269.696 153.65 267.581 156.575 265.874L151.536 257.237ZM133.072 270.129C129.802 271.946 127.143 274.347 124.924 276.346C122.583 278.455 120.68 280.165 118.465 281.468L123.535 290.087C126.775 288.182 129.423 285.752 131.618 283.775C133.935 281.687 135.799 280.054 137.928 278.871L133.072 270.129ZM118.465 281.468C113.623 284.316 107.356 290.302 104.096 294.377L111.904 300.623C114.653 297.187 120.04 292.143 123.535 290.087L118.465 281.468ZM104.096 294.377C103.866 294.664 103.699 294.769 103.625 294.808C103.554 294.846 103.461 294.879 103.302 294.889C102.928 294.913 102.134 294.799 100.928 294.129L96.0718 302.871C98.3216 304.121 101.041 305.052 103.935 304.869C107.016 304.673 109.815 303.235 111.904 300.623L104.096 294.377ZM100.928 294.129C98.0269 292.517 94.7919 292.091 92.1592 291.967C89.6891 291.85 86.6381 292 85 292V302C87.6096 302 89.4156 301.848 91.687 301.956C93.7959 302.055 95.187 302.379 96.0718 302.871L100.928 294.129ZM85 292C81.7915 292 79.1053 292.6 76.7486 293.265C74.196 293.985 72.6306 294.571 70.4153 295.064L72.5846 304.825C75.1097 304.264 77.7328 303.378 79.4643 302.889C81.3917 302.345 83.0853 302 85 302V292ZM70.4153 295.064C68.2693 295.54 66.7392 297.01 65.9405 297.902C64.9889 298.965 64.1577 300.253 63.5758 301.56C63.0667 302.704 62.4059 304.618 62.7391 306.684C62.9267 307.848 63.4717 309.259 64.7324 310.388C65.9896 311.513 67.4681 311.919 68.7064 311.991L69.2936 302.009C69.7092 302.033 70.5762 302.198 71.4021 302.937C72.2316 303.68 72.5256 304.559 72.6116 305.093C72.6531 305.35 72.6518 305.547 72.6454 305.661C72.6389 305.777 72.625 305.846 72.6218 305.861C72.6173 305.882 72.6341 305.801 72.7117 305.627C72.8754 305.259 73.1407 304.852 73.3901 304.573C73.5094 304.44 73.5568 304.413 73.5068 304.449C73.4865 304.464 73.1731 304.695 72.5846 304.825L70.4153 295.064ZM68.7064 311.991C70.9163 312.121 73.2587 311.73 75.1809 311.358C77.3549 310.937 79.0298 310.535 80.8926 310.244C84.9106 309.618 85.8116 310.268 86.0956 310.623L93.9043 304.377C89.7498 299.183 83.1997 299.764 79.3517 300.364C77.2816 300.686 74.9198 301.222 73.2782 301.541C71.3847 301.908 70.1325 302.058 69.2936 302.009L68.7064 311.991ZM86.0956 310.623C86.4463 311.062 86.7929 311.467 87.0978 311.819C87.4259 312.197 87.6632 312.466 87.9117 312.758C88.1471 313.036 88.3141 313.244 88.4378 313.413C88.4974 313.494 88.5388 313.555 88.5669 313.6C88.5949 313.644 88.6049 313.663 88.6034 313.66C88.593 313.64 88.3488 313.138 88.4744 312.389C88.5936 311.678 88.9309 311.443 88.6867 311.687L95.7577 318.758C96.9426 317.573 98.0053 316.018 98.3366 314.043C98.6745 312.029 98.1291 310.316 97.4946 309.084C96.9018 307.932 96.1032 306.956 95.5354 306.287C94.8273 305.453 94.4366 305.042 93.9043 304.377L86.0956 310.623ZM88.6867 311.687C87.4928 312.881 86.2747 313.572 84.6513 314.276C83.2126 314.9 80.5352 315.858 78.1295 317.153L82.8705 325.958C84.8202 324.908 86.1981 324.505 88.6288 323.451C90.8748 322.478 93.3401 321.175 95.7577 318.758L88.6867 311.687ZM78.1295 317.153C77.1295 317.692 75.9048 318.205 74.4014 318.784C73.0053 319.321 71.216 319.971 69.5915 320.64C66.3645 321.969 62.3439 323.914 59.6088 327.43L67.5023 333.57C68.5189 332.263 70.3848 331.128 73.3992 329.886C74.8955 329.27 76.3156 328.762 77.9952 328.116C79.5675 327.51 81.2848 326.812 82.8705 325.958L78.1295 317.153ZM59.6088 327.43C58.6132 328.71 56.4429 331.705 55.5236 334.717C55.0996 336.106 54.5171 338.839 56.0469 341.416C57.7837 344.341 60.9052 345 63.2222 345V335C62.3893 335 63.7372 334.78 64.6457 336.311C65.017 336.936 65.0534 337.476 65.0524 337.67C65.0516 337.85 65.0214 337.855 65.088 337.636C65.2275 337.179 65.5588 336.478 66.0762 335.629C66.5681 334.822 67.1074 334.077 67.5023 333.57L59.6088 327.43ZM63.2222 345C74.2688 345 82.5706 338.547 89.3457 333.127L83.0987 325.318C76.0478 330.959 70.3152 335 63.2222 335V345ZM89.3457 333.127C89.0736 333.344 89.0394 333.317 89.7088 332.973C90.212 332.715 90.9067 332.382 91.7448 332.003C93.4196 331.245 95.5377 330.365 97.6145 329.608C99.748 328.831 101.609 328.271 102.849 328.047C103.532 327.924 103.619 327.982 103.348 327.945C103.277 327.936 100.695 327.539 100.064 324.696L109.825 322.526C109.036 318.976 105.797 318.186 104.693 318.036C103.387 317.859 102.061 318.028 101.076 318.206C98.9783 318.584 96.4757 319.381 94.1927 320.212C91.853 321.064 89.5012 322.042 87.6249 322.891C86.6873 323.315 85.8362 323.721 85.1446 324.076C84.6193 324.345 83.7417 324.804 83.0987 325.318L89.3457 333.127ZM100.063 324.696C100.32 325.848 100.202 327.25 99.6402 329.237C99.3617 330.221 99.0078 331.24 98.5972 332.391C98.2041 333.493 97.742 334.761 97.3507 336.022C96.5791 338.508 95.8411 341.667 96.4218 345.024C97.0413 348.606 99.0298 351.746 102.43 354.391L108.57 346.498C106.808 345.128 106.405 344.069 106.275 343.32C106.107 342.346 106.263 341.043 106.901 338.986C107.215 337.976 107.587 336.954 108.016 335.751C108.427 334.598 108.884 333.299 109.263 331.959C110.016 329.297 110.603 326.024 109.825 322.526L100.063 324.696ZM102.43 354.391C105.809 357.019 110.18 356.809 113.227 355.635C116.298 354.45 120 351.449 120 346.5H110C110 346.386 110.024 346.262 110.067 346.151C110.108 346.048 110.149 345.999 110.149 345.998C110.149 345.998 110.147 346.001 110.142 346.006C110.136 346.012 110.128 346.02 110.117 346.029C110.095 346.049 110.062 346.076 110.016 346.107C109.922 346.17 109.792 346.241 109.629 346.304C109.282 346.438 108.927 346.483 108.665 346.464C108.402 346.445 108.42 346.381 108.57 346.498L102.43 354.391ZM120 346.5C120 343.876 119.715 341.333 119.469 339.123C119.213 336.818 119 334.877 119 333H109C109 335.53 109.287 338.036 109.531 340.228C109.785 342.514 110 344.517 110 346.5H120ZM119 333V319.5H109V333H119ZM119 319.5C119 319.709 118.952 320.093 118.724 320.536C118.494 320.98 118.173 321.306 117.872 321.514C117.347 321.876 117.038 321.797 117.28 321.803C117.465 321.808 117.697 321.867 117.841 321.936C117.901 321.966 117.871 321.961 117.784 321.885C117.699 321.81 117.491 321.608 117.306 321.236L126.25 316.764C125.259 314.782 123.558 313.593 122.194 312.934C120.76 312.24 119.128 311.846 117.53 311.806C115.989 311.768 113.977 312.052 112.196 313.281C110.171 314.677 109 316.924 109 319.5H119ZM117.306 321.236C117.479 321.582 117.696 322.158 118.024 323.143C118.312 324.007 118.694 325.214 119.118 326.337C119.546 327.475 120.117 328.809 120.909 330.048C121.696 331.278 122.881 332.699 124.661 333.641L129.339 324.803C129.625 324.954 129.586 325.055 129.333 324.66C129.086 324.273 128.802 323.678 128.475 322.81C128.142 321.928 127.868 321.052 127.511 319.982C127.195 319.033 126.781 317.826 126.25 316.764L117.306 321.236ZM124.661 333.641C128.804 335.835 133.325 335.529 136.792 333.095C140.131 330.75 142 326.795 142 322.556H132C132 323.91 131.427 324.643 131.046 324.91C130.858 325.043 130.668 325.106 130.463 325.117C130.261 325.127 129.889 325.094 129.339 324.803L124.661 333.641ZM142 322.556C142 319.672 141.879 316.446 140.637 313.452C139.285 310.192 136.872 307.765 133.428 305.851L128.572 314.593C130.509 315.669 131.096 316.551 131.399 317.282C131.812 318.277 132 319.724 132 322.556H142ZM133.428 305.851C132.032 305.076 130.952 304.276 130.339 303.535C129.828 302.918 129.907 302.715 129.936 302.585L120.175 300.415C119.297 304.363 120.749 307.632 122.637 309.913C124.422 312.069 126.768 313.591 128.572 314.593L133.428 305.851ZM129.936 302.585C129.879 302.842 129.873 302.463 131.219 301.426C131.8 300.978 132.451 300.541 133.217 300.033C133.91 299.573 134.805 298.986 135.57 298.391L129.43 290.498C129.029 290.81 128.498 291.163 127.687 291.701C126.948 292.191 126.016 292.811 125.115 293.505C123.498 294.751 120.935 296.993 120.175 300.415L129.936 302.585ZM135.57 298.391C137.267 297.071 139.099 295.849 141.173 294.417C143.168 293.04 145.341 291.498 147.322 289.737L140.678 282.263C139.192 283.584 137.459 284.83 135.492 286.188C133.605 287.49 131.42 288.95 129.43 290.498L135.57 298.391ZM147.322 289.737C148.217 288.941 149.825 287.87 151.727 286.88C153.636 285.887 155.422 285.195 156.585 284.936L154.415 275.175C152.07 275.696 149.419 276.808 147.112 278.009C144.798 279.213 142.41 280.723 140.678 282.263L147.322 289.737ZM156.585 284.936C159.928 284.193 162.94 282.114 164.749 280.99C166.986 279.6 168.21 279.049 169.263 278.993L168.737 269.007C164.819 269.213 161.593 271.178 159.472 272.495C156.924 274.078 155.672 274.895 154.415 275.175L156.585 284.936ZM169.263 278.993C174.058 278.741 179.736 276.256 183.031 274.791L178.969 265.653C175.27 267.297 171.342 268.87 168.737 269.007L169.263 278.993ZM183.031 274.791C184.326 274.216 185.811 273.875 188 273.336C189.964 272.852 192.547 272.194 194.928 270.871L190.072 262.129C188.999 262.725 187.631 263.128 185.609 263.626C183.812 264.068 181.274 264.629 178.969 265.653L183.031 274.791ZM194.928 270.871C194.894 270.89 194.996 270.834 195.277 270.72C195.533 270.617 195.864 270.496 196.245 270.374C197.027 270.123 197.876 269.913 198.603 269.81C198.962 269.759 199.223 269.745 199.387 269.747C199.573 269.749 199.503 269.772 199.272 269.7C199.036 269.626 198.405 269.379 197.829 268.691C197.194 267.933 197 267.087 197 266.5H207C207 265.061 206.563 263.546 205.497 262.273C204.49 261.069 203.24 260.462 202.249 260.153C200.412 259.58 198.488 259.727 197.203 259.909C194.534 260.286 191.556 261.305 190.072 262.129L194.928 270.871ZM197 266.5C197 267.545 197.051 268.611 197.076 269.371C197.104 270.211 197.106 270.809 197.065 271.316C196.994 272.177 196.824 272.523 196.506 272.877L203.939 279.567C206.119 277.145 206.838 274.5 207.032 272.13C207.122 271.021 207.1 269.943 207.071 269.043C207.039 268.063 207 267.326 207 266.5H197ZM196.506 272.877C193.258 276.486 190.011 280.301 186.434 283.851C182.872 287.387 179.322 290.304 175.764 292.083L180.236 301.028C185.187 298.552 189.62 294.778 193.479 290.948C197.322 287.133 200.931 282.909 203.939 279.567L196.506 272.877ZM175.764 292.083C172.663 293.634 170.255 295.987 168.451 297.745C166.449 299.695 165.096 301.005 163.572 301.851L168.428 310.593C171.352 308.969 173.695 306.597 175.429 304.908C177.361 303.025 178.729 301.781 180.236 301.028L175.764 292.083ZM163.572 301.851C161.415 303.049 159.178 305.068 157.392 306.95C155.57 308.871 153.78 311.113 152.659 313.075L161.341 318.036C161.926 317.013 163.142 315.419 164.646 313.834C166.185 312.212 167.595 311.056 168.428 310.593L163.572 301.851ZM152.659 313.075C151.203 315.623 149.444 317.868 147.393 320.636C145.426 323.291 143.269 326.335 141.653 329.969L150.791 334.031C151.93 331.468 153.517 329.168 155.428 326.589C157.255 324.123 159.508 321.244 161.341 318.036L152.659 313.075ZM141.653 329.969C137.322 339.715 138.032 352.857 141.555 362.017L150.889 358.427C148.107 351.195 147.754 340.865 150.791 334.031L141.653 329.969ZM141.555 362.017C146.53 374.952 159.202 385.006 169.604 390.858L174.507 382.142C164.799 376.681 154.608 368.096 150.889 358.427L141.555 362.017ZM169.604 390.858C183.557 398.706 199.521 405 216.5 405V395C201.951 395 187.738 389.585 174.507 382.142L169.604 390.858ZM216.5 405C219.253 405 222.184 405.143 225.405 405.27C228.564 405.394 231.94 405.501 235.311 405.394C241.981 405.183 249.242 404.135 255.442 400.231L250.114 391.769C246.164 394.256 241.047 395.208 234.995 395.399C232.006 395.493 228.935 395.401 225.799 395.278C222.723 395.156 219.508 395 216.5 395V405ZM255.442 400.231C260.337 397.149 267.006 394.358 272.733 392.831L270.156 383.169C263.58 384.923 255.961 388.087 250.114 391.769L255.442 400.231ZM272.733 392.831C283.225 390.033 293.611 384.089 302.27 379.677L297.73 370.767C288.359 375.541 279.323 380.724 270.156 383.169L272.733 392.831ZM302.27 379.677C313.792 373.807 324.372 364.691 333.916 357.839L328.084 349.716C317.472 357.335 308.361 365.352 297.73 370.767L302.27 379.677ZM333.916 357.839C343.611 350.879 353.265 343.831 362.433 335.682L355.789 328.207C347.051 335.975 337.779 342.756 328.084 349.716L333.916 357.839ZM362.433 335.682C377.415 322.364 395.151 307.647 401.318 285.449L391.682 282.773C386.463 301.562 371.445 314.291 355.789 328.207L362.433 335.682ZM401.318 285.449C402.918 279.687 404.095 272.432 402.864 265.661L393.025 267.45C393.868 272.086 393.104 277.655 391.682 282.773L401.318 285.449ZM402.864 265.661C401.95 260.637 398.284 256.865 395.048 254.341C391.665 251.703 387.824 249.714 385.087 248.457L380.913 257.543C383.332 258.655 386.386 260.268 388.898 262.226C391.556 264.299 392.784 266.122 393.025 267.45L402.864 265.661ZM385.088 248.457C379.386 245.837 372.352 245.195 365.891 245.287C359.317 245.379 352.745 246.248 347.654 247.063L349.234 256.937C354.147 256.151 360.169 255.368 366.032 255.286C372.005 255.201 377.248 255.859 380.912 257.543L385.088 248.457ZM347.654 247.063C337.011 248.766 327.127 251.959 317.392 255.266L320.608 264.734C330.321 261.436 339.503 258.494 349.234 256.937L347.654 247.063ZM317.392 255.266C296.033 262.52 275.21 271.305 256.112 284.435L261.777 292.676C279.806 280.281 299.666 271.847 320.608 264.734L317.392 255.266ZM256.112 284.435C252.21 287.118 248.921 290.293 245.954 293.411C242.813 296.713 240.411 299.518 237.464 302.464L244.536 309.536C247.493 306.578 250.584 303.053 253.199 300.304C255.989 297.372 258.72 294.777 261.777 292.676L256.112 284.435ZM237.464 302.464C233.519 306.41 229.248 311.822 228.025 318.55L237.864 320.339C238.54 316.622 241.073 312.998 244.536 309.536L237.464 302.464ZM228.025 318.55C227.829 319.63 227.228 322.233 226.953 324.153C226.643 326.314 226.462 329.068 227.248 331.818L236.863 329.071C236.65 328.325 236.616 327.217 236.852 325.57C237.122 323.682 237.465 322.533 237.864 320.339L228.025 318.55ZM227.248 331.818C228.142 334.946 230.196 336.935 231.792 338.212C232.572 338.837 233.41 339.419 233.999 339.837C234.658 340.307 235.095 340.635 235.433 340.939L242.123 333.506C241.32 332.783 240.466 332.166 239.799 331.691C239.061 331.166 238.54 330.805 238.043 330.407C237.085 329.64 236.919 329.266 236.863 329.071L227.248 331.818ZM235.433 340.939C237.442 342.747 240.11 343.533 242.301 343.899C244.636 344.29 247.187 344.326 249.611 344.108C252.037 343.89 254.526 343.4 256.732 342.62C258.787 341.893 261.254 340.686 262.904 338.623L255.096 332.377C255.183 332.267 254.823 332.687 253.396 333.192C252.12 333.644 250.473 333.991 248.716 334.149C246.957 334.307 245.28 334.259 243.951 334.036C242.476 333.789 242.042 333.434 242.123 333.506L235.433 340.939ZM262.904 338.623C262.597 339.007 262.439 339.015 262.927 338.728C263.301 338.508 263.829 338.246 264.472 337.968C265.762 337.41 267.134 336.947 267.818 336.752L265.071 327.137C263.991 327.445 262.208 328.052 260.5 328.791C259.644 329.161 258.713 329.605 257.86 330.106C257.122 330.54 255.97 331.283 255.096 332.377L262.904 338.623ZM267.818 336.752C270.373 336.022 272.365 334.503 273.791 333.15C275.229 331.785 276.397 330.284 277.169 329.292L269.275 323.153C268.481 324.175 267.73 325.115 266.906 325.897C266.07 326.691 265.457 327.027 265.071 327.137L267.818 336.752ZM277.169 329.292C277.472 328.902 277.929 328.242 278.216 327.355C278.523 326.409 278.725 324.875 277.92 323.279C277.146 321.743 275.875 321.024 275.102 320.714C274.334 320.406 273.633 320.321 273.208 320.29C271.714 320.182 269.986 320.554 268.96 320.795C267.714 321.088 266.443 321.459 265.516 321.744C265.045 321.889 264.647 322.017 264.364 322.11C264.223 322.156 264.111 322.193 264.034 322.219C264.006 322.228 263.956 322.244 263.952 322.246C263.942 322.249 263.944 322.248 263.95 322.246C263.951 322.246 263.968 322.24 263.992 322.233C263.999 322.23 264.035 322.219 264.081 322.206C264.108 322.198 264.185 322.176 264.234 322.163C264.348 322.135 264.978 322.027 265.5 322V332C266.022 331.973 266.652 331.865 266.766 331.837C266.816 331.824 266.893 331.802 266.921 331.794C266.967 331.78 267.003 331.769 267.012 331.766C267.038 331.758 267.059 331.751 267.065 331.749C267.081 331.744 267.097 331.738 267.106 331.735C267.138 331.725 267.144 331.723 267.187 331.708C267.252 331.687 267.347 331.655 267.467 331.616C267.709 331.537 268.053 331.427 268.46 331.301C269.29 331.046 270.317 330.749 271.246 330.531C272.395 330.261 272.718 330.281 272.486 330.264C272.376 330.256 271.942 330.221 271.38 329.996C270.814 329.769 269.689 329.165 268.991 327.78C268.263 326.336 268.471 324.99 268.703 324.273C268.916 323.616 269.218 323.227 269.275 323.153L277.169 329.292ZM265.5 322C264.088 322 262.753 322.336 261.93 322.553C260.885 322.828 260.378 322.989 259.766 323.107C259.212 323.213 259.149 323.152 259.329 323.19C259.666 323.262 259.986 323.479 260.127 323.654L252.318 329.901C255.295 333.623 259.392 333.362 261.653 332.927C262.708 332.724 263.893 332.377 264.476 332.224C265.28 332.012 265.506 332 265.5 332V322ZM260.127 323.654C260.603 324.25 260.296 324.582 260.462 323.676C260.616 322.835 261.073 321.625 261.865 320.175C263.491 317.198 265.741 314.61 266.623 313.904L260.377 306.096C258.177 307.856 255.15 311.609 253.089 315.381C252.038 317.305 251.048 319.571 250.626 321.875C250.216 324.114 250.204 327.259 252.318 329.901L260.127 323.654ZM266.623 313.904C273.269 308.588 280.135 303.291 287.264 300.699L283.847 291.301C274.928 294.544 266.827 300.935 260.377 306.096L266.623 313.904ZM287.264 300.699C288.162 300.372 289.525 299.687 290.83 299.021C291.551 298.653 292.365 298.233 293.239 297.782C294.117 297.329 295.063 296.841 296.068 296.328C300.101 294.268 304.985 291.853 309.737 289.879C314.613 287.853 318.863 286.504 321.761 286.248C323.24 286.118 323.709 286.34 323.647 286.308C323.217 286.09 323.036 285.599 323.039 285.62L332.961 284.38C332.577 281.302 330.914 278.781 328.17 277.39C325.794 276.185 323.119 276.09 320.884 276.287C316.354 276.686 310.901 278.567 305.9 280.644C300.775 282.773 295.609 285.334 291.52 287.421C290.495 287.945 289.531 288.442 288.653 288.895C287.77 289.351 286.981 289.759 286.285 290.114C285.586 290.47 285.013 290.758 284.561 290.975C284.336 291.083 284.16 291.165 284.025 291.225C283.88 291.289 283.83 291.307 283.847 291.301L287.264 300.699ZM323.039 285.62C323.321 287.876 324.163 289.891 324.501 290.866C324.879 291.953 325.061 292.716 325.007 293.737L334.993 294.263C335.144 291.402 334.522 289.239 333.947 287.584C333.333 285.816 333.073 285.273 332.961 284.38L323.039 285.62ZM325.007 293.737C324.943 294.957 324.246 296.931 322.836 299.447C321.503 301.826 319.848 304.147 318.5 305.944L326.5 311.944C327.933 310.033 329.901 307.295 331.56 304.336C333.141 301.514 334.803 297.87 334.993 294.263L325.007 293.737ZM318.5 305.944C314.531 311.237 309.419 315.191 303.576 318.969C298.043 322.546 291.023 326.427 285.073 330.724L290.927 338.831C296.734 334.637 302.474 331.589 309.006 327.366C315.228 323.344 321.488 318.627 326.5 311.944L318.5 305.944ZM285.073 330.724C273.39 339.161 258.41 345.759 244.318 350.791L247.682 360.209C262.115 355.054 278.121 348.08 290.927 338.831L285.073 330.724ZM244.318 350.791C242.901 351.297 240.633 351.926 238.386 352.24C235.892 352.59 234.459 352.399 234.031 352.209L229.969 361.347C233.14 362.756 237.015 362.53 239.775 362.144C242.783 361.722 245.715 360.911 247.682 360.209L244.318 350.791ZM234.031 352.209C233.179 351.83 231.576 350.816 230.066 349.495C229.339 348.859 228.743 348.245 228.323 347.718C227.859 347.135 227.82 346.918 227.863 347.071L218.248 349.818C218.72 351.47 219.655 352.886 220.5 353.947C221.39 355.065 222.438 356.108 223.482 357.021C225.513 358.798 227.954 360.451 229.969 361.347L234.031 352.209ZM227.863 347.071C226.829 343.451 225.791 340.731 225.228 337.595C224.709 334.706 224.795 332.273 225.791 330.031L216.653 325.969C214.557 330.687 214.662 335.339 215.385 339.363C216.064 343.141 217.489 347.163 218.248 349.818L227.863 347.071ZM225.791 330.031C228.346 324.282 231.901 318.627 235.682 313.901L227.873 307.654C223.614 312.979 219.59 319.36 216.653 325.969L225.791 330.031ZM235.682 313.901C243.183 304.525 251.495 294.404 257.871 282.928L249.129 278.072C243.247 288.659 235.538 298.074 227.873 307.654L235.682 313.901ZM257.871 282.928C260.492 278.21 264.391 274.603 269.143 271.126C271.532 269.378 274.025 267.74 276.666 265.978C279.262 264.245 281.974 262.41 284.57 260.391L278.43 252.498C276.149 254.272 273.705 255.931 271.115 257.66C268.57 259.359 265.847 261.147 263.238 263.056C257.993 266.893 252.768 271.521 249.129 278.072L257.871 282.928ZM284.57 260.391C289.157 256.823 291.946 252.071 294.17 247.98C296.544 243.613 298.229 240.143 300.737 237.322L293.263 230.678C289.779 234.597 287.413 239.473 285.385 243.204C283.206 247.211 281.241 250.311 278.43 252.498L284.57 260.391ZM300.737 237.322C304.413 233.186 307.286 228.436 309.885 224.173C312.573 219.766 314.983 215.851 317.939 212.567L310.506 205.877C306.824 209.968 303.95 214.7 301.347 218.968C298.657 223.38 296.238 227.331 293.263 230.678L300.737 237.322ZM317.939 212.567C319.023 211.362 320.308 209.455 320.838 208.753C321.636 207.698 322.079 207.335 322.339 207.197L317.661 198.359C315.389 199.562 313.861 201.401 312.861 202.723C311.595 204.398 311.257 205.042 310.506 205.877L317.939 212.567ZM322.339 207.197C322.181 207.28 321.297 207.715 320.015 207.447C318.601 207.152 317.795 206.244 317.463 205.711C317.183 205.26 317.152 204.965 317.181 205.109C317.199 205.202 317.229 205.422 317.244 205.798C317.276 206.56 317.233 207.51 317.164 208.558C317.107 209.412 317 210.685 317 211.5H327C327 211.128 327.057 210.499 327.142 209.221C327.214 208.138 327.291 206.727 327.236 205.386C327.193 204.332 327.056 202.199 325.952 200.426C325.278 199.342 324.031 198.07 322.056 197.658C320.212 197.273 318.645 197.837 317.661 198.359L322.339 207.197ZM317 211.5C317 212.95 316.665 214.422 316.142 216.567C315.665 218.525 315 221.155 315 224H325C325 222.552 325.335 221.081 325.858 218.935C326.335 216.977 327 214.346 327 211.5H317ZM315 224V236.5H325V224H315ZM315 236.5C315 238.011 314.891 240.208 315.166 242.082C315.504 244.383 316.38 246.478 318.096 248.623L325.904 242.377C325.256 241.566 325.131 241.113 325.06 240.629C325.009 240.28 324.982 239.829 324.98 239.12C324.979 238.768 324.983 238.393 324.989 237.948C324.994 237.514 325 237.023 325 236.5H315ZM318.096 248.623C319.075 249.848 320.316 250.435 321.108 250.726C321.956 251.037 322.809 251.196 323.523 251.288C324.952 251.471 326.523 251.465 327.881 251.413C329.275 251.36 330.673 251.247 331.786 251.155C333.035 251.052 333.7 251 334 251V241C333.174 241 331.955 241.107 330.966 241.189C329.839 241.282 328.645 241.377 327.498 241.421C326.315 241.466 325.397 241.446 324.795 241.369C324.493 241.33 324.445 241.298 324.556 241.339C324.611 241.359 325.28 241.597 325.904 242.377L318.096 248.623ZM334 251C337.917 251 341.751 251.239 345.742 251.49C349.685 251.738 353.792 252 358 252V242C354.159 242 350.365 241.762 346.37 241.51C342.423 241.261 338.281 241 334 241V251ZM358 252C359.406 252 360.839 251.73 362.117 251.279C363.339 250.847 364.829 250.105 366.02 248.863C367.303 247.526 368.552 245.171 367.711 242.319C366.995 239.892 365.09 238.383 363.535 237.468L358.465 246.087C358.761 246.262 358.794 246.325 358.702 246.23C358.607 246.129 358.305 245.778 358.119 245.148C357.919 244.468 357.936 243.734 358.149 243.076C358.344 242.473 358.647 242.104 358.802 241.942C359.065 241.667 359.143 241.724 358.788 241.849C358.488 241.955 358.179 242 358 242V252ZM363.535 237.468C363.002 237.154 362.544 236.75 361.392 235.837C360.466 235.104 358.992 233.97 357.153 233.301L353.736 242.699C353.922 242.767 354.301 242.977 355.183 243.676C355.84 244.196 357.147 245.312 358.465 246.087L363.535 237.468ZM357.153 233.301C355.101 232.555 352.829 232.467 351.746 232.383C351.064 232.331 350.623 232.283 350.276 232.216C349.944 232.151 349.874 232.099 349.928 232.129L345.072 240.871C347.264 242.089 349.696 242.255 350.976 242.354C352.687 242.486 353.284 242.535 353.736 242.699L357.153 233.301ZM349.928 232.129C348.896 231.556 347.79 231.382 347.374 231.317C346.761 231.221 346.101 231.162 345.497 231.12C344.299 231.038 342.869 230.999 341.766 230.959C341.184 230.938 340.679 230.917 340.258 230.89C340.049 230.877 339.881 230.864 339.748 230.85C339.683 230.844 339.632 230.838 339.595 230.834C339.557 230.829 339.54 230.826 339.541 230.826C339.542 230.826 339.551 230.828 339.565 230.831C339.58 230.833 339.603 230.838 339.635 230.846C339.69 230.859 339.811 230.889 339.973 230.946C340.119 230.997 340.416 231.109 340.77 231.321C341.088 231.512 341.752 231.959 342.305 232.797C342.949 233.774 343.296 235.081 343.017 236.465C342.774 237.674 342.15 238.457 341.811 238.82C341.452 239.203 341.117 239.431 340.959 239.532C340.78 239.646 340.643 239.713 340.585 239.741L336.304 230.704C336.041 230.828 335.232 231.214 334.51 231.986C334.12 232.403 333.466 233.237 333.214 234.495C332.926 235.927 333.283 237.28 333.955 238.301C334.536 239.182 335.248 239.67 335.631 239.9C336.049 240.15 336.428 240.3 336.672 240.385C337.155 240.554 337.6 240.64 337.876 240.686C338.9 240.859 340.335 240.914 341.404 240.953C342.664 240.999 343.828 241.029 344.814 241.097C345.303 241.13 345.633 241.166 345.828 241.196C346.22 241.258 345.74 241.242 345.072 240.871L349.928 232.129ZM340.585 239.741C342.43 238.867 344.846 238.31 347.746 237.919C350.846 237.5 353.366 237.379 356.552 237.025L355.448 227.086C353.16 227.34 349.445 227.598 346.407 228.009C343.169 228.446 339.544 229.169 336.304 230.704L340.585 239.741ZM356.552 237.025C357.406 236.93 359.279 236.858 362.244 236.654C364.978 236.466 368.321 236.178 371.384 235.669C372.916 235.415 374.467 235.091 375.887 234.666C377.243 234.259 378.793 233.67 380.114 232.747C381.416 231.838 383.243 230.048 383.368 227.193C383.486 224.489 381.983 222.467 380.758 221.242L373.687 228.313C374.117 228.744 373.315 228.178 373.377 226.756C373.409 226.027 373.666 225.436 373.936 225.043C374.061 224.861 374.177 224.736 374.255 224.662C374.332 224.588 374.383 224.553 374.389 224.548C374.392 224.546 374.292 224.614 374.035 224.726C373.785 224.834 373.449 224.957 373.016 225.087C372.14 225.349 371.035 225.59 369.745 225.805C367.165 226.233 364.205 226.496 361.557 226.678C359.142 226.844 356.553 226.963 355.448 227.086L356.552 237.025ZM380.758 221.242C376.084 216.568 369.326 216.981 364.798 217.67C362.33 218.046 359.852 218.627 357.801 219.09C355.607 219.587 354.01 219.921 352.823 220.016L353.621 229.984C355.65 229.822 357.966 229.306 360.007 228.844C362.191 228.35 364.269 227.866 366.303 227.556C370.779 226.875 372.807 227.433 373.687 228.313L380.758 221.242ZM352.823 220.016C351.96 220.085 351.148 220.328 350.697 220.47C350.162 220.638 349.582 220.847 349.082 221.027C347.98 221.426 347.049 221.762 346.214 221.97C345.813 222.071 345.556 222.109 345.419 222.119C345.258 222.132 345.434 222.092 345.799 222.198C346.234 222.323 346.9 222.651 347.424 223.348C347.923 224.011 347.985 224.6 347.992 224.723L338.008 225.277C338.08 226.573 338.445 228.046 339.433 229.359C340.446 230.706 341.785 231.448 343.028 231.806C345.196 232.431 347.392 231.984 348.639 231.672C350.067 231.315 351.511 230.783 352.48 230.432C353.017 230.239 353.396 230.104 353.693 230.011C354.073 229.891 353.963 229.957 353.621 229.984L352.823 220.016ZM347.992 224.723C348.034 225.47 347.643 225.726 347.979 225.35C348.324 224.963 348.994 224.42 350.091 223.741C351.157 223.08 352.341 222.46 353.605 221.798C354.732 221.207 356.159 220.467 357.235 219.722L351.543 211.5C351.088 211.815 350.297 212.241 348.965 212.939C347.769 213.566 346.252 214.355 344.823 215.24C343.426 216.106 341.808 217.245 340.518 218.691C339.219 220.147 337.847 222.384 338.008 225.277L347.992 224.723ZM357.235 219.722C358.958 218.529 361.11 217.751 364.118 216.623C366.821 215.609 370.355 214.261 373.238 211.81L366.762 204.19C365.393 205.354 363.47 206.185 360.606 207.26C358.046 208.22 354.518 209.44 351.543 211.5L357.235 219.722ZM373.238 211.81C374.736 210.537 376 208.9 376.575 206.899C377.175 204.811 376.917 202.659 375.883 200.818C373.919 197.32 369.951 196 366.5 196V206C367.095 206 367.427 206.116 367.532 206.165C367.649 206.219 367.404 206.141 367.164 205.714C367.041 205.495 366.943 205.221 366.908 204.912C366.872 204.603 366.907 204.335 366.964 204.137C367.073 203.757 367.2 203.818 366.762 204.19L373.238 211.81ZM366.5 196C360.053 196 355.296 199.347 351.926 201.745C348.114 204.459 346.086 205.869 343.706 206.009L344.294 215.991C350.138 215.648 354.682 212.058 357.725 209.892C361.21 207.411 363.591 206 366.5 206V196ZM343.706 206.009C342.853 206.059 342.16 206.283 341.733 206.447C341.292 206.616 340.918 206.807 340.69 206.927C340.57 206.99 340.456 207.052 340.376 207.095C340.287 207.144 340.234 207.173 340.188 207.197C340.075 207.256 340.15 207.21 340.316 207.149C340.447 207.101 341.008 206.898 341.809 206.927C342.772 206.961 343.91 207.331 344.823 208.239C345.615 209.026 345.863 209.851 345.936 210.15C346.014 210.471 346 210.632 346 210.5H336C336 211.077 336.041 211.787 336.223 212.527C336.398 213.245 336.795 214.358 337.773 215.331C340.197 217.74 343.155 216.76 343.775 216.532C344.24 216.36 344.633 216.158 344.848 216.045C344.966 215.983 345.08 215.921 345.157 215.878C345.246 215.83 345.301 215.801 345.35 215.775C345.75 215.564 345.203 215.938 344.294 215.991L343.706 206.009ZM346 210.5V210.469H336V210.5H346ZM346 210.469C346 209.986 346.001 209.622 346.018 209.275C346.035 208.936 346.064 208.712 346.094 208.564C346.152 208.28 346.152 208.558 345.81 208.852L339.302 201.259C337.404 202.886 336.626 204.943 336.295 206.568C335.983 208.101 336 209.633 336 210.469L346 210.469ZM345.81 208.852C346.748 208.048 347.845 207.26 349.155 206.347C350.4 205.479 351.882 204.468 353.269 203.382C356.044 201.209 359.17 198.199 360.557 193.693L350.999 190.752C350.513 192.331 349.324 193.769 347.104 195.508C345.993 196.378 344.807 197.188 343.436 198.144C342.128 199.056 340.659 200.096 339.302 201.259L345.81 208.852ZM360.557 193.693C360.937 192.457 361.217 190.859 360.81 189.178C360.347 187.265 359.124 185.796 357.534 184.95C356.143 184.21 354.725 184.072 353.733 184.073C352.688 184.074 351.671 184.231 350.791 184.424C349.032 184.81 347.262 185.466 345.879 186.063C344.567 186.628 343.212 187.31 342.376 187.889L348.068 196.111C348.015 196.148 348.145 196.058 348.535 195.858C348.88 195.679 349.329 195.465 349.84 195.245C350.897 194.789 352.024 194.391 352.934 194.192C353.389 194.092 353.65 194.073 353.74 194.073C353.885 194.073 353.461 194.11 352.836 193.778C352.012 193.339 351.328 192.512 351.091 191.532C350.91 190.785 351.103 190.412 350.999 190.752L360.557 193.693ZM342.376 187.889C336.633 191.865 332.283 197.052 329.431 203.469L338.569 207.531C340.661 202.824 343.803 199.064 348.068 196.111L342.376 187.889ZM329.431 203.469C328.9 204.663 328.195 205.641 327.056 207.46L335.532 212.767C336.283 211.566 337.658 209.58 338.569 207.531L329.431 203.469ZM336.108 211.464C336.46 210.21 336.841 208.709 336.969 207.552L327.031 206.448C327.002 206.706 326.834 207.5 326.48 208.762L336.108 211.464ZM336.969 207.552C337.428 203.422 338.356 199.384 339.271 194.809C340.158 190.374 341 185.561 341 180.556H331C331 184.512 330.333 188.508 329.465 192.848C328.625 197.049 327.552 201.752 327.031 206.448L336.969 207.552ZM341 180.556C341 179.617 340.931 178.623 340.7 177.666C340.476 176.738 340.008 175.462 338.929 174.379C336.24 171.682 332.912 172.779 331.868 173.212C330.642 173.72 329.433 174.554 328.726 175.035C327.819 175.651 327.216 176.065 326.661 176.359L331.339 185.197C332.495 184.585 333.621 183.799 334.348 183.305C334.758 183.027 335.067 182.82 335.334 182.656C335.611 182.486 335.715 182.443 335.697 182.45C335.68 182.457 335.581 182.497 335.416 182.536C335.253 182.575 334.968 182.627 334.593 182.62C333.718 182.603 332.668 182.264 331.846 181.439C331.156 180.746 330.994 180.075 330.979 180.013C330.957 179.922 331 180.056 331 180.556H341ZM326.661 176.359C325.395 177.029 323.741 177.987 322.164 179.166C320.663 180.288 318.841 181.895 317.659 183.964L326.341 188.925C326.518 188.616 327.06 187.991 328.152 187.175C329.168 186.415 330.334 185.729 331.339 185.197L326.661 176.359ZM317.659 183.964C317.66 183.962 317.515 184.19 316.969 184.697C316.437 185.189 315.802 185.699 314.95 186.389C313.533 187.537 311.085 189.467 309.659 191.964L318.341 196.925C318.663 196.363 319.471 195.596 321.243 194.161C321.987 193.559 322.931 192.805 323.766 192.031C324.586 191.271 325.596 190.23 326.341 188.925L317.659 183.964ZM309.659 191.964C309.374 192.463 308.741 193.177 307.532 194.256C306.597 195.09 304.85 196.523 303.687 197.687L310.758 204.758C311.695 203.82 312.62 203.119 314.191 201.716C315.487 200.559 317.193 198.935 318.341 196.925L309.659 191.964ZM303.687 197.687C300.929 200.444 297.516 202.703 293.606 205.184C289.857 207.563 285.541 210.209 281.877 213.506L288.567 220.939C291.467 218.329 294.953 216.173 298.964 213.627C302.815 211.184 307.12 208.396 310.758 204.758L303.687 197.687ZM281.877 213.506C281.22 214.097 280.5 214.954 280.007 215.554C279.444 216.238 278.85 216.994 278.411 217.548C278.181 217.839 278.002 218.065 277.868 218.227C277.638 218.508 277.752 218.346 277.999 218.119C278.013 218.106 278.421 217.712 279.056 217.385C279.264 217.279 280.369 216.697 281.886 216.868C282.798 216.97 283.833 217.346 284.715 218.16C285.558 218.938 285.954 219.831 286.135 220.475C286.452 221.597 286.279 222.514 286.241 222.72C286.178 223.065 286.091 223.325 286.049 223.444C285.962 223.693 285.877 223.868 285.859 223.905C285.799 224.029 285.807 223.995 286.044 223.607L277.511 218.393C277.305 218.73 277.047 219.159 276.865 219.534C276.817 219.633 276.71 219.857 276.61 220.143C276.562 220.282 276.471 220.557 276.405 220.914C276.365 221.132 276.192 222.059 276.51 223.187C276.693 223.835 277.09 224.73 277.935 225.51C278.819 226.325 279.856 226.703 280.771 226.805C282.294 226.976 283.407 226.393 283.624 226.281C284.279 225.945 284.713 225.53 284.761 225.486C285.143 225.135 285.504 224.686 285.602 224.567C285.797 224.329 286.026 224.041 286.253 223.754C286.729 223.153 287.244 222.497 287.729 221.907C287.97 221.614 288.179 221.367 288.351 221.175C288.544 220.958 288.606 220.903 288.567 220.939L281.877 213.506ZM286.044 223.607C287.052 221.958 288.309 220.527 289.948 218.629C291.5 216.831 293.36 214.647 294.871 211.928L286.129 207.072C285.172 208.795 283.937 210.289 282.378 212.094C280.906 213.8 279.036 215.898 277.511 218.393L286.044 223.607ZM294.871 211.928C299.29 203.974 304 192.652 304 182.5H294C294 190.08 290.288 199.586 286.129 207.072L294.871 211.928ZM304 182.5C304 175.095 303.375 167.235 302.991 160.706L293.009 161.294C293.41 168.12 294 175.483 294 182.5H304ZM302.991 160.706C302.863 158.53 301.984 156.133 300.984 154.242C300.03 152.436 298.402 150.011 296.036 148.659L291.075 157.341C290.923 157.254 291.024 157.276 291.308 157.623C291.567 157.938 291.861 158.38 292.143 158.915C292.423 159.444 292.651 159.986 292.807 160.465C292.884 160.702 292.936 160.901 292.969 161.057C293.003 161.218 293.009 161.295 293.009 161.294L302.991 160.706ZM296.036 148.659C296.128 148.711 296.167 148.741 296.15 148.729C296.138 148.72 296.104 148.695 296.051 148.65C295.942 148.557 295.815 148.436 295.705 148.314C295.585 148.182 295.553 148.126 295.578 148.167C295.594 148.191 295.653 148.289 295.722 148.454C295.786 148.608 295.905 148.928 295.961 149.38L286.039 150.62C286.199 151.906 286.751 152.907 287.082 153.439C287.464 154.056 287.905 154.599 288.302 155.037C289.035 155.844 290.045 156.753 291.075 157.341L296.036 148.659ZM295.961 149.38C295.813 148.189 295.327 147.268 294.884 146.643C294.451 146.032 293.974 145.584 293.625 145.29C292.989 144.753 292.227 144.288 292.011 144.15C291.833 144.036 291.787 144.003 291.788 144.003C291.795 144.008 291.846 144.046 291.922 144.115C291.995 144.18 292.133 144.309 292.291 144.502C292.561 144.83 293.251 145.78 293.28 147.242C293.312 148.863 292.526 149.989 291.98 150.536L284.909 143.464C284.13 144.243 283.245 145.597 283.282 147.442C283.316 149.129 284.114 150.302 284.567 150.853C285.036 151.424 285.538 151.818 285.816 152.024C286.121 152.251 286.425 152.447 286.614 152.569C286.852 152.721 286.961 152.789 287.089 152.875C287.204 152.952 287.216 152.966 287.177 152.934C287.148 152.909 286.95 152.743 286.726 152.427C286.493 152.097 286.147 151.485 286.039 150.62L295.961 149.38ZM291.98 150.536C291.278 151.237 290.511 151.52 290.025 151.627C289.566 151.729 289.256 151.702 289.202 151.697C289.12 151.689 289.327 151.706 289.923 151.925C291.065 152.347 292.652 153.139 294.461 154.156C296.225 155.148 298.017 156.249 299.53 157.198C300.917 158.069 302.322 158.975 302.964 159.341L307.925 150.659C307.519 150.427 306.527 149.783 304.844 148.727C303.286 147.75 301.336 146.549 299.363 145.44C297.435 144.356 295.29 143.247 293.384 142.544C292.456 142.201 291.309 141.849 290.129 141.74C289.165 141.65 286.787 141.586 284.909 143.464L291.98 150.536ZM302.964 159.341C304.52 160.231 305.95 161.729 308.374 164.026C310.427 165.973 313.385 168.667 317.182 169.752L319.929 160.137C318.761 159.803 317.398 158.802 315.254 156.769C313.479 155.087 310.836 152.322 307.925 150.659L302.964 159.341ZM317.182 169.752C319.61 170.446 321.524 169.285 322.456 168.348C323.248 167.55 323.655 166.661 323.844 166.206C324.262 165.201 324.517 164.034 324.692 163.058C325.062 160.988 325.32 158.291 325.505 155.663C325.879 150.354 326 144.61 326 143H316C316 144.399 315.886 149.908 315.53 154.961C315.35 157.513 315.121 159.773 314.848 161.295C314.701 162.115 314.596 162.402 314.61 162.367C314.624 162.333 314.673 162.219 314.767 162.06C314.856 161.911 315.042 161.621 315.361 161.3C316.069 160.588 317.748 159.514 319.929 160.137L317.182 169.752ZM326 143C326 138.337 324.483 133.484 322.838 129.316C321.209 125.186 319.094 120.901 317.791 117.969L308.653 122.031C310.22 125.557 311.994 129.077 313.536 132.986C315.063 136.857 316 140.275 316 143H326ZM317.791 117.969C317.102 116.418 315.995 114.462 315.076 112.772C314.079 110.937 313.137 109.128 312.445 107.409C311.729 105.633 311.452 104.356 311.457 103.539C311.461 102.929 311.589 102.932 311.623 102.904L305.377 95.0957C302.504 97.3935 301.477 100.528 301.457 103.472C301.439 106.209 302.268 108.908 303.169 111.144C304.092 113.438 305.275 115.68 306.29 117.547C307.384 119.56 308.177 120.959 308.653 122.031L317.791 117.969ZM311.623 102.904C314.439 100.652 315.953 97.4978 316.96 95.3582C318.147 92.8362 318.786 91.3916 319.737 90.3218L312.263 83.6782C310.112 86.0981 308.8 89.2137 307.913 91.0995C306.845 93.3675 306.16 94.4686 305.377 95.0957L311.623 102.904ZM319.737 90.3218C320.853 89.0664 321.514 87.477 321.895 86.4999C322.256 85.5783 322.794 83.9993 323.055 83.2971C323.427 82.2922 323.705 81.6911 323.919 81.3547C324.17 80.9601 323.918 81.5806 322.929 81.8632L320.182 72.2479C317.712 72.9535 316.258 74.7664 315.482 75.9879C314.668 77.2676 314.092 78.7063 313.679 79.8195C313.154 81.2355 312.975 81.8529 312.581 82.8603C312.209 83.8123 312.079 83.8846 312.263 83.6782L319.737 90.3218ZM322.929 81.8632C323.875 81.593 324.261 81.55 325.497 81.2385C326.368 81.0191 327.874 80.6124 329.227 79.6535C330.862 78.4945 331.965 76.7733 332.294 74.6363C332.578 72.7969 332.248 70.9172 331.752 69.1819L322.137 71.9292C322.293 72.4762 322.36 72.8385 322.386 73.0556C322.412 73.2748 322.387 73.2692 322.411 73.1114C322.439 72.9303 322.524 72.6092 322.747 72.249C322.971 71.8869 323.239 71.6404 323.444 71.4947C323.627 71.3654 323.728 71.3378 323.643 71.3702C323.555 71.4035 323.382 71.4588 323.053 71.5417C322.705 71.6294 322.367 71.7038 321.844 71.8252C321.363 71.9367 320.791 72.0739 320.182 72.2479L322.929 81.8632ZM331.752 69.182C331.003 66.5593 329.128 64.7067 326.708 63.9678C324.625 63.332 322.59 63.647 321.138 64.076C319.608 64.5278 318.153 65.272 316.948 66.1414C315.853 66.9321 314.437 68.2054 313.653 69.9693L322.791 74.0307C322.638 74.3744 322.493 74.5148 322.53 74.4758C322.549 74.4551 322.634 74.3706 322.801 74.25C323.153 73.9961 323.596 73.7769 323.97 73.6664C324.054 73.6416 324.121 73.6263 324.17 73.6173C324.219 73.6082 324.242 73.6071 324.239 73.6073C324.236 73.6075 324.195 73.6096 324.123 73.6022C324.05 73.5948 323.935 73.5768 323.788 73.5321C323.477 73.4371 323.074 73.2345 322.712 72.8649C322.35 72.4951 322.193 72.1256 322.137 71.9291L331.752 69.182ZM313.653 69.9693C312.203 73.2317 311.155 74.7744 308.464 77.4645L315.536 84.5355C319.072 80.9995 320.83 78.4426 322.791 74.0307L313.653 69.9693ZM308.464 77.4645C307.44 78.4893 305.887 79.7584 303.955 81.4399C302.333 82.8523 300.137 84.8078 298.895 86.6709L307.216 92.218C307.577 91.6765 308.666 90.5974 310.521 88.9825C312.067 87.6367 314.185 85.8859 315.536 84.5355L308.464 77.4645ZM298.895 86.6709C298.798 86.8164 298.856 86.7063 299.052 86.5045C299.149 86.4044 299.402 86.1549 299.802 85.9009C300.155 85.6763 301.037 85.1821 302.298 85.1657C303.815 85.1459 305.143 85.8237 306.015 86.805C306.733 87.614 306.98 88.4343 307.065 88.7672C307.165 89.1566 307.185 89.4568 307.191 89.5825C307.198 89.7276 307.193 89.8226 307.192 89.8465C307.191 89.8637 307.214 89.6187 307.348 89.0017C307.469 88.4453 307.644 87.7478 307.865 86.9465C308.776 83.6463 310.217 79.4606 311.052 77.6246L301.948 73.4865C300.809 75.9928 299.205 80.736 298.225 84.2868C297.771 85.9331 297.288 87.8839 297.208 89.2721C297.19 89.5933 297.154 90.3757 297.378 91.2499C297.49 91.686 297.773 92.5851 298.539 93.4468C299.457 94.4809 300.842 95.1855 302.428 95.1648C303.758 95.1475 304.718 94.6247 305.163 94.3424C305.654 94.0305 306.009 93.694 306.221 93.476C306.647 93.0381 306.982 92.5686 307.216 92.2179L298.895 86.6709ZM311.052 77.6246C311.654 76.2999 311.959 74.4416 312.138 73.0466C312.348 71.4156 312.489 69.5002 312.513 67.6154C312.537 65.7667 312.453 63.7474 312.139 61.9827C311.983 61.11 311.738 60.1005 311.312 59.1402C310.93 58.28 310.112 56.787 308.428 55.8514L303.572 64.593C302.996 64.2729 302.64 63.8899 302.453 63.6486C302.268 63.4093 302.187 63.2314 302.17 63.1937C302.146 63.1389 302.213 63.2843 302.294 63.7374C302.452 64.6245 302.534 65.9409 302.514 67.4846C302.494 68.9919 302.38 70.5253 302.22 71.772C302.029 73.2548 301.85 73.7031 301.948 73.4865L311.052 77.6246ZM308.428 55.8514C307.191 55.164 303.931 53.2854 300.721 52.4331C299.16 52.0188 296.843 51.6236 294.523 52.3603C291.699 53.2576 289.821 55.5088 289.175 58.4154L298.936 60.5846C298.941 60.564 298.878 60.8527 298.565 61.2107C298.238 61.5858 297.846 61.7974 297.551 61.8911C297.151 62.0182 297.225 61.8516 298.155 62.0984C299.926 62.5683 302.04 63.7422 303.572 64.593L308.428 55.8514ZM289.175 58.4154C288.713 60.4913 288.924 62.4506 289.77 64.208C290.512 65.7509 291.622 66.8349 292.166 67.3715C292.892 68.0866 293.013 68.2071 293.106 68.3444C293.111 68.3525 293.073 68.296 293.039 68.1911C293.023 68.1419 293.012 68.0955 293.006 68.0561C293 68.0172 293 67.9968 293 68H303C303 63.5444 299.997 61.0481 299.184 60.2472C298.625 59.6967 298.69 59.6838 298.781 59.8726C298.975 60.2759 298.928 60.6241 298.936 60.5846L289.175 58.4154ZM293 68C293 68.575 292.653 70.0867 291.792 72.3168C291.008 74.3442 290.038 76.3695 289.353 77.6713L298.202 82.3287C299.028 80.7602 300.169 78.3797 301.119 75.9217C301.991 73.6664 303 70.6133 303 68H293ZM289.353 77.6713C288.175 79.9105 287.036 81.8931 285.964 82.9645L293.036 90.0355C295.361 87.7104 297.154 84.3215 298.202 82.3287L289.353 77.6713ZM285.964 82.9645C285.904 83.0253 286.087 82.8217 286.5 82.6005C286.93 82.3707 287.91 81.9682 289.209 82.1868C290.569 82.4155 291.447 83.1811 291.889 83.7175C292.281 84.193 292.43 84.5968 292.447 84.6433C292.467 84.6956 292.44 84.6253 292.295 83.9504C292.196 83.4861 292.01 82.5907 291.699 81.7357L282.301 85.1532C282.336 85.2503 282.391 85.4579 282.519 86.0514C282.601 86.4342 282.788 87.3764 283.101 88.1997C283.26 88.6173 284.312 91.5034 287.55 92.0482C289.121 92.3126 290.416 91.8464 291.216 91.4189C291.999 91.0001 292.606 90.4648 293.036 90.0355L285.964 82.9645ZM291.699 81.7357C291.227 80.4386 290.812 79.0541 290.301 77.4143C289.811 75.8399 289.247 74.0824 288.543 72.3482C287.139 68.8882 284.993 65.0507 281.068 62.3335L275.376 70.5554C277.009 71.6861 278.206 73.4707 279.278 76.1098C279.812 77.4252 280.27 78.8366 280.753 80.388C281.216 81.8741 281.726 83.5725 282.301 85.1532L291.699 81.7357ZM281.068 62.3335C280.076 61.6464 278.49 60.9027 276.978 60.2928C275.348 59.6353 273.341 58.9478 271.311 58.4784C269.4 58.0365 266.955 57.6619 264.677 58.0364C263.495 58.2308 262.029 58.6793 260.721 59.7351C259.309 60.8751 258.42 62.4541 258.124 64.2336L267.988 65.8775C267.899 66.4104 267.576 67.0537 267.003 67.5161C266.534 67.8943 266.181 67.9234 266.3 67.9038C266.625 67.8503 267.537 67.8695 269.058 68.2213C270.461 68.5457 271.961 69.052 273.237 69.5666C273.868 69.821 274.407 70.0629 274.818 70.2644C275.28 70.4905 275.431 70.593 275.376 70.5554L281.068 62.3335ZM258.124 64.2336C257.823 66.0374 257.687 68.5109 259.067 70.6913C260.599 73.1119 263.026 73.7007 264.239 73.8964C264.879 73.9997 265.511 74.0428 265.942 74.0711C266.442 74.104 266.765 74.1222 267.101 74.1585C267.748 74.2281 267.932 74.3229 267.964 74.3412L272.925 65.6588C271.161 64.6506 269.401 64.3483 268.172 64.216C267.571 64.1513 266.973 64.1173 266.598 64.0927C266.153 64.0634 265.952 64.0435 265.832 64.0241C265.525 63.9745 266.717 64.0791 267.517 65.3428C268.165 66.3663 267.799 67.0101 267.988 65.8776L258.124 64.2336ZM267.964 74.3412C267.809 74.2526 267.935 74.2802 268.24 74.707C268.523 75.1033 268.835 75.6701 269.125 76.3741C269.739 77.8626 270 79.3172 270 80H280C280 77.6989 279.349 74.9342 278.369 72.559C277.461 70.3586 275.784 67.2922 272.925 65.6588L267.964 74.3412ZM270 80C270 83.064 271.209 85.8076 271.902 87.4309C272.806 89.5456 273 90.1577 273 90.5H283C283 87.6484 281.694 84.895 281.098 83.5005C280.291 81.6145 280 80.7051 280 80H270ZM273 90.5C273 91.6827 273.351 92.8094 273.471 93.204C273.552 93.4715 273.651 93.7783 273.702 93.9396C273.733 94.0368 273.755 94.109 273.772 94.1667C273.79 94.2256 273.795 94.2479 273.794 94.2444C273.794 94.2412 273.789 94.2246 273.784 94.197C273.778 94.1699 273.769 94.1234 273.759 94.0609C273.743 93.9642 273.703 93.6903 273.715 93.3153C273.725 93.0029 273.778 92.1587 274.291 91.2162C274.922 90.056 276.074 89.0909 277.569 88.7756C278.794 88.5173 279.75 88.8046 280.111 88.9314C280.53 89.0784 280.807 89.2472 280.895 89.3024C281.074 89.4147 281.092 89.4536 280.877 89.263L274.234 96.737C274.597 97.0603 275.063 97.4491 275.583 97.7748C275.841 97.9368 276.261 98.1782 276.8 98.3672C277.281 98.536 278.332 98.8347 279.632 98.5606C281.203 98.2295 282.408 97.2213 283.076 95.9945C283.625 94.9852 283.697 94.0506 283.71 93.6275C283.737 92.7775 283.554 92.0535 283.496 91.8186C283.372 91.3234 283.079 90.4309 283.041 90.3044C282.882 89.7813 283 89.9982 283 90.5H273ZM280.877 89.263C279.036 87.6265 276.51 86.9186 274.906 86.5717C273.079 86.1766 271.186 86 269.778 86V96C270.48 96 271.664 96.1017 272.792 96.3457C273.346 96.4654 273.788 96.5988 274.101 96.7234C274.456 96.8646 274.427 96.9089 274.234 96.737L280.877 89.263ZM269.778 86C267.981 86 264.562 85.6662 261.075 87.6588L266.036 96.3412C266.688 95.9686 266.899 96 269.778 96V86ZM261.075 87.6588C259.074 88.8021 258.319 90.6862 258.044 91.8449C257.753 93.0713 257.787 94.2763 257.941 95.2653C258.097 96.2656 258.425 97.3636 258.994 98.3801C259.498 99.2822 260.585 100.81 262.587 101.503L265.858 92.0528C267.178 92.5099 267.676 93.4172 267.721 93.4976C267.784 93.611 267.809 93.6824 267.814 93.7005C267.819 93.7129 267.82 93.7199 267.821 93.7221C267.821 93.7244 267.822 93.7256 267.822 93.7268C267.822 93.7279 267.823 93.7326 267.823 93.7418C267.824 93.7509 267.825 93.7689 267.825 93.7962C267.824 93.842 267.819 93.9665 267.774 94.1544C267.711 94.42 267.374 95.5765 266.036 96.3412L261.075 87.6588ZM262.587 101.503C265.197 102.406 268.302 102.736 270.971 102.881C273.71 103.029 276.493 103 278.5 103V93C276.342 93 273.909 93.0255 271.512 92.8957C269.046 92.7621 267.095 92.4811 265.858 92.0528L262.587 101.503ZM278.5 103C277.975 103 278.141 102.795 279.143 103.569C280.015 104.242 281.044 105.289 282.139 106.612C284.32 109.245 286.25 112.346 287.129 113.928L295.871 109.072C294.783 107.115 292.518 103.466 289.842 100.234C288.509 98.6244 286.945 96.9591 285.254 95.654C283.695 94.4497 281.329 93 278.5 93V103ZM287.129 113.928C289.184 117.627 291.231 120.829 293.036 124.525C294.781 128.096 295.887 131.369 296.004 134.414L305.996 134.03C305.801 128.959 304.018 124.22 302.021 120.135C300.086 116.173 297.538 112.074 295.871 109.072L287.129 113.928ZM296.004 134.414C296.061 135.914 296.629 138.206 296.882 139.248C296.963 139.586 297.029 139.854 297.086 140.091C297.113 140.205 297.134 140.296 297.151 140.368C297.168 140.445 297.173 140.473 297.173 140.468C297.172 140.465 297.166 140.433 297.158 140.381C297.152 140.344 297.131 140.212 297.118 140.031C297.111 139.941 297.102 139.775 297.107 139.564C297.111 139.406 297.126 138.95 297.279 138.388C297.358 138.097 297.863 136.199 299.927 135.203C302.391 134.015 304.442 135.245 304.965 135.612C305.593 136.053 305.96 136.533 306.065 136.67C306.219 136.873 306.324 137.044 306.376 137.132C306.481 137.31 306.547 137.449 306.563 137.484C306.604 137.569 306.616 137.604 306.587 137.532L297.302 141.246C297.354 141.377 297.431 141.563 297.52 141.752C297.561 141.839 297.647 142.018 297.77 142.225C297.831 142.328 297.943 142.51 298.104 142.722C298.215 142.868 298.588 143.354 299.222 143.798C299.75 144.169 301.805 145.4 304.272 144.21C306.34 143.213 306.847 141.311 306.928 141.013C307.083 140.445 307.1 139.979 307.104 139.809C307.109 139.587 307.099 139.407 307.091 139.3C307.065 138.943 307.004 138.636 306.989 138.559C306.907 138.14 306.729 137.426 306.601 136.895C306.447 136.26 306.288 135.59 306.165 134.99C306.023 134.3 305.996 134.015 305.996 134.03L296.004 134.414ZM306.587 137.532C305.785 135.529 304.25 133.708 303.21 132.532C301.82 130.96 301.106 130.289 300.37 129.389L292.63 135.722C293.12 136.321 293.693 136.946 294.199 137.494C294.74 138.079 295.235 138.609 295.718 139.156C296.197 139.697 296.587 140.169 296.883 140.579C297.028 140.78 297.133 140.942 297.207 141.067C297.281 141.194 297.305 141.252 297.302 141.246L306.587 137.532ZM300.37 129.389C298.895 127.586 296.789 125.048 294.312 122.88C291.904 120.773 288.581 118.504 284.584 118.034L283.416 127.966C284.428 128.085 285.876 128.786 287.726 130.406C289.508 131.965 291.147 133.909 292.63 135.722L300.37 129.389ZM284.584 118.034C280.544 117.559 276.499 117.568 272.659 117.678C268.685 117.792 265.158 118 261.5 118V128C265.325 128 269.376 127.776 272.945 127.674C276.648 127.568 280.112 127.577 283.416 127.966L284.584 118.034ZM261.5 118C261.596 118 261.998 118.047 262.42 118.36C262.78 118.627 262.842 118.858 262.765 118.684C262.532 118.155 262.324 117.058 262.151 114.955C262.007 113.214 261.88 110.63 261.48 108.448C261.099 106.369 260.257 103.202 257.623 101.096L251.377 108.904C251.02 108.619 251.344 108.614 251.644 110.251C251.926 111.786 251.994 113.474 252.185 115.778C252.345 117.719 252.61 120.439 253.613 122.715C254.155 123.944 255.025 125.326 256.462 126.392C257.962 127.504 259.711 128 261.5 128V118ZM257.623 101.096C257.078 100.659 256.766 100.09 255.61 98.119C254.618 96.4292 253.025 93.8499 249.928 92.1292L245.072 100.871C245.664 101.2 246.123 101.712 246.985 103.181C247.682 104.368 249.026 107.024 251.377 108.904L257.623 101.096ZM249.928 92.1292C248.585 91.3833 247.177 90.2592 244.642 88.5824C243.541 87.8544 242.3 87.0832 241.028 86.4543C239.803 85.8488 238.245 85.2186 236.552 85.0306L235.448 94.9694C235.429 94.9673 235.519 94.9763 235.74 95.0515C235.956 95.125 236.239 95.2423 236.595 95.4184C237.321 95.7773 238.164 96.2872 239.126 96.9231C240.715 97.9744 243.342 99.9098 245.072 100.871L249.928 92.1292ZM236.552 85.0306C235.712 84.9372 234.693 84.5374 232.905 83.6723C231.407 82.9472 229.065 81.7257 226.585 81.1746L224.415 90.9365C225.482 91.1735 226.586 91.7238 228.549 92.6737C230.222 93.4835 232.68 94.6619 235.448 94.9694L236.552 85.0306Z" fill="#356060" mask="url(#path-2-outside-1_1_30)"/>
<defs>
<linearGradient id="paint0_linear_1_30" x1="229" y1="3" x2="229" y2="455" gradientUnits="userSpaceOnUse">
<stop stop-color="white" stop-opacity="0.5"/>
<stop offset="0.215" stop-color="#83FFFF" stop-opacity="0.8"/>
<stop offset="0.495" stop-color="#007070" stop-opacity="0.8"/>
<stop offset="0.92" stop-opacity="0.8"/>
<stop offset="1" stop-opacity="0.8"/>
</linearGradient>
<linearGradient id="paint1_linear_1_30" x1="118.5" y1="255" x2="269" y2="198.5" gradientUnits="userSpaceOnUse">
<stop stop-color="#FFAF8D"/>
<stop offset="1" stop-color="#FFE18D"/>
</linearGradient>
</defs>
</svg>
